<svg xmlns="http://www.w3.org/2000/svg" viewBox="0 0 410.31 410.31"><defs><style>.cls-1{fill:#ff4b54;}.cls-1,.cls-2,.cls-3{fill-rule:evenodd;}.cls-2{fill:#69efa4;}.cls-3{fill:#21ce6e;}</style></defs><title>Ресурс 3</title><g id="Слой_2" data-name="Слой 2"><g id="_1" data-name="1"><path class="cls-1" d="M208.65,78.35a3.49,3.49,0,0,1-3.49,3.49h0a3.49,3.49,0,0,1-3.49-3.49v-43a3.49,3.49,0,0,1,3.49-3.49h0a3.49,3.49,0,0,1,3.49,3.49Z"/><path class="cls-1" d="M208.65,374.7a3.49,3.49,0,0,1-3.49,3.49h0a3.49,3.49,0,0,1-3.49-3.49v-43a3.49,3.49,0,0,1,3.49-3.49h0a3.49,3.49,0,0,1,3.49,3.49Z"/><path class="cls-1" d="M208.65,17a3.49,3.49,0,0,1-3.49,3.49h0A3.49,3.49,0,0,1,201.66,17V3.49A3.49,3.49,0,0,1,205.16,0h0a3.49,3.49,0,0,1,3.49,3.49Z"/><path class="cls-1" d="M331.83,208.21a3.49,3.49,0,0,1-3.5-3.48h0a3.49,3.49,0,0,1,3.48-3.5l43-.1a3.49,3.49,0,0,1,3.5,3.48h0a3.49,3.49,0,0,1-3.48,3.5Z"/><path class="cls-1" d="M35.48,208.91a3.49,3.49,0,0,1-3.5-3.48h0a3.49,3.49,0,0,1,3.48-3.5l43-.1A3.49,3.49,0,0,1,82,205.3h0a3.49,3.49,0,0,1-3.48,3.5Z"/><path class="cls-1" d="M297.2,117.93a3.49,3.49,0,0,1-4.94,0h0a3.49,3.49,0,0,1,0-4.94l30.42-30.41a3.49,3.49,0,0,1,4.94,0h0a3.49,3.49,0,0,1,0,4.94Z"/><path class="cls-1" d="M87.63,327.46a3.49,3.49,0,0,1-4.94,0h0a3.49,3.49,0,0,1,0-4.94l30.42-30.41a3.49,3.49,0,0,1,4.94,0h0a3.49,3.49,0,0,1,0,4.94Z"/><path class="cls-1" d="M208.65,406.82a3.49,3.49,0,0,1-3.49,3.49h0a3.49,3.49,0,0,1-3.49-3.49V393.31a3.49,3.49,0,0,1,3.49-3.49h0a3.49,3.49,0,0,1,3.49,3.49Z"/><path class="cls-1" d="M393.32,208.14a3.49,3.49,0,0,1-3.5-3.48h0a3.49,3.49,0,0,1,3.48-3.5l13.51,0a3.49,3.49,0,0,1,3.5,3.48h0a3.49,3.49,0,0,1-3.48,3.5Z"/><path class="cls-1" d="M3.5,209.19A3.49,3.49,0,0,1,0,205.71H0a3.49,3.49,0,0,1,3.48-3.5l13.51,0a3.49,3.49,0,0,1,3.5,3.48h0a3.49,3.49,0,0,1-3.48,3.5Z"/><path class="cls-1" d="M340.67,74.58a3.49,3.49,0,0,1-4.94,0h0a3.49,3.49,0,0,1,0-4.94l9.56-9.56a3.49,3.49,0,0,1,4.94,0h0a3.49,3.49,0,0,1,0,4.94Z"/><path class="cls-1" d="M65,350.22a3.49,3.49,0,0,1-4.94,0h0a3.49,3.49,0,0,1,0-4.94l9.56-9.56a3.49,3.49,0,0,1,4.94,0h0a3.49,3.49,0,0,1,0,4.94Z"/><path class="cls-1" d="M159.91,86.65A3.49,3.49,0,0,1,158,91.21h0a3.49,3.49,0,0,1-4.56-1.89L137,49.58A3.49,3.49,0,0,1,138.88,45h0a3.49,3.49,0,0,1,4.56,1.89Z"/><path class="cls-1" d="M273.32,360.45a3.49,3.49,0,0,1-1.89,4.56h0a3.49,3.49,0,0,1-4.56-1.89L250.4,323.38a3.49,3.49,0,0,1,1.89-4.56h0a3.49,3.49,0,0,1,4.56,1.89Z"/><path class="cls-1" d="M89.47,153.31a3.49,3.49,0,0,1,1.89,4.56h0a3.49,3.49,0,0,1-4.56,1.89L47.05,143.31a3.49,3.49,0,0,1-1.89-4.56h0a3.49,3.49,0,0,1,4.56-1.89Z"/><path class="cls-1" d="M363.26,266.72a3.49,3.49,0,0,1,1.89,4.56h0a3.49,3.49,0,0,1-4.56,1.89l-39.74-16.46a3.49,3.49,0,0,1-1.89-4.56h0a3.49,3.49,0,0,1,4.56-1.89Z"/><path class="cls-1" d="M86.79,250.26a3.49,3.49,0,0,1,4.56,1.89h0a3.49,3.49,0,0,1-1.89,4.56L49.73,273.18a3.49,3.49,0,0,1-4.56-1.89h0a3.49,3.49,0,0,1,1.89-4.56Z"/><path class="cls-1" d="M360.59,136.85a3.49,3.49,0,0,1,4.56,1.89h0a3.49,3.49,0,0,1-1.89,4.56l-39.74,16.46a3.49,3.49,0,0,1-4.56-1.89h0a3.49,3.49,0,0,1,1.89-4.56Z"/><path class="cls-1" d="M153.46,320.71a3.49,3.49,0,0,1,4.56-1.89h0a3.49,3.49,0,0,1,1.89,4.56l-16.46,39.74a3.49,3.49,0,0,1-4.56,1.89h0a3.49,3.49,0,0,1-1.89-4.56Z"/><path class="cls-1" d="M266.87,46.91A3.49,3.49,0,0,1,271.43,45h0a3.49,3.49,0,0,1,1.89,4.56L256.86,89.32a3.49,3.49,0,0,1-4.56,1.89h0a3.49,3.49,0,0,1-1.89-4.56Z"/><path class="cls-1" d="M118,113a3.49,3.49,0,0,1,0,4.94h0a3.49,3.49,0,0,1-4.94,0L82.6,87.54a3.49,3.49,0,0,1,0-4.94h0a3.49,3.49,0,0,1,4.94,0Z"/><path class="cls-1" d="M327.51,322.57a3.49,3.49,0,0,1,0,4.94h0a3.49,3.49,0,0,1-4.94,0L292.16,297.1a3.49,3.49,0,0,1,0-4.94h0a3.49,3.49,0,0,1,4.94,0Z"/><path class="cls-1" d="M74.58,69.65a3.49,3.49,0,0,1,0,4.94h0a3.49,3.49,0,0,1-4.94,0L60.09,65a3.49,3.49,0,0,1,0-4.94h0a3.49,3.49,0,0,1,4.94,0Z"/><path class="cls-1" d="M350.22,345.29a3.49,3.49,0,0,1,0,4.94h0a3.49,3.49,0,0,1-4.94,0l-9.56-9.56a3.49,3.49,0,0,1,0-4.94h0a3.49,3.49,0,0,1,4.94,0Z"/><path class="cls-2" d="M127.48,189.08l6.25-38.77a3.56,3.56,0,0,1,3.54-3.54h131a3.55,3.55,0,0,1,3.54,3.54L278,189.08h5.68a11.76,11.76,0,0,1,1.82.22l-6.6-39a10.6,10.6,0,0,0-3.13-7.5h0a10.6,10.6,0,0,0-7.51-3.12h-131a10.65,10.65,0,0,0-10.63,10.63l-6.59,39a8.39,8.39,0,0,1,1.51-.18C123.14,189.08,125.09,189.13,127.48,189.08Z"/><path class="cls-3" d="M121.85,189.08H283.46a10,10,0,0,1,10,10V211.5a9.92,9.92,0,0,1-2.92,7h0a10,10,0,0,1-5,2.71l-6.59,38.91a10.6,10.6,0,0,1-3.13,7.5h0a10.6,10.6,0,0,1-7.51,3.12h-131a10.65,10.65,0,0,1-10.63-10.63l-6.58-38.86a10,10,0,0,1-5.26-2.76h0a9.91,9.91,0,0,1-2.92-7V199a10,10,0,0,1,10-10ZM153.1,263.7V251.24a3.49,3.49,0,0,1,3.49-3.49h0a3.49,3.49,0,0,1,3.49,3.49V263.7h8.39v-21a3.49,3.49,0,0,1,3.49-3.49h0a3.49,3.49,0,0,1,3.49,3.49v21h8.46V251.24a3.49,3.49,0,0,1,3.49-3.49h0a3.49,3.49,0,0,1,3.49,3.49V263.7h8.39v-21a3.49,3.49,0,0,1,3.49-3.49h0a3.49,3.49,0,0,1,3.49,3.49v21h8.5V251.24a3.49,3.49,0,0,1,3.49-3.49h0a3.49,3.49,0,0,1,3.49,3.49V263.7h8.51v-21a3.49,3.49,0,0,1,3.49-3.49h0a3.49,3.49,0,0,1,3.49,3.49v21h8.5V251.24a3.49,3.49,0,0,1,3.49-3.49h0a3.49,3.49,0,0,1,3.49,3.49V263.7h15.55a3.53,3.53,0,0,0,2.5-1h0a3.52,3.52,0,0,0,1-2.5l6.19-38.7H127.48l6.25,38.7a3.56,3.56,0,0,0,3.54,3.54Zm130.36-67.54H121.85A2.89,2.89,0,0,0,119,199V211.5a2.88,2.88,0,0,0,.84,2h0a2.86,2.86,0,0,0,2,.85H283.46a2.86,2.86,0,0,0,2-.85h0a2.88,2.88,0,0,0,.84-2V199a2.89,2.89,0,0,0-2.87-2.87Z"/><path class="cls-3" d="M134,208.93a3.49,3.49,0,0,1-3.5-3.48h0a3.49,3.49,0,0,1,3.48-3.5l114.76-.1.38,0,22.69,0a3.49,3.49,0,0,1,3.5,3.48h0a3.49,3.49,0,0,1-3.48,3.5l-114.76.1-.38,0Z"/><path class="cls-2" d="M202.8,161.72a3.54,3.54,0,0,1,0-7.09h54.82c4.2,0,7.15,3.29,7.75,7.27l1.78,11.69h-.09a3.54,3.54,0,0,1-7.08-.11h0c-.43-3.13-.91-6.25-1.3-9.38a2.48,2.48,0,0,0-2.49-2.37H202.8Z"/><path class="cls-2" d="M171,161.69a3.49,3.49,0,0,1-3.5-3.48h0a3.49,3.49,0,0,1,3.48-3.5l13.51,0a3.49,3.49,0,0,1,3.5,3.48h0a3.49,3.49,0,0,1-3.48,3.5Z"/></g></g></svg>