<svg xmlns="http://www.w3.org/2000/svg" viewBox="0 0 259.62 259.61"><defs><style>.cls-1{fill:#21ce6e;}.cls-1,.cls-2{fill-rule:evenodd;}.cls-2{fill:#69efa4;}</style></defs><title>Ресурс 1</title><g id="Слой_2" data-name="Слой 2"><g id="_1" data-name="1"><path class="cls-1" d="M100.54,0a100.54,100.54,0,0,1,74.88,167.64L258,250.23a5.52,5.52,0,0,1,0,7.78h0a5.52,5.52,0,0,1-7.78,0l-82.59-82.59A100.54,100.54,0,1,1,100.54,0Zm.29,18A82.29,82.29,0,1,0,159,42.06,82,82,0,0,0,100.84,18ZM154,47.07a75.21,75.21,0,1,0,22,53.18,75,75,0,0,0-22-53.18Zm12.61-12.61A93.46,93.46,0,1,0,194,100.54,93.16,93.16,0,0,0,166.63,34.46Z"/><path class="cls-2" d="M67.68,156.42l-.17-.1a63.64,63.64,0,0,1-14.7-11.81h0a3.52,3.52,0,0,1,5.1-4.87l.06.06h0a58.44,58.44,0,0,0,13.11,10.54l.17.1h0a3.53,3.53,0,0,1-3.57,6.08ZM74.14,41.34l.18-.08a64.51,64.51,0,0,1,85.27,32.51h0a3.53,3.53,0,0,1-6.44,2.87h0A57.49,57.49,0,0,0,77.19,47.71l-.18.08h0a3.53,3.53,0,0,1-2.87-6.43Zm90.95,53.18,0,.19a63.61,63.61,0,0,1-1,18.83h0a3.52,3.52,0,0,1-6.93-1.29l0-.08h0a58.44,58.44,0,0,0,.88-16.8l0-.19h0a3.53,3.53,0,0,1,7-.66Z"/></g></g></svg>