<?xml version="1.0" encoding="utf-8"?>
<!-- Generator: Adobe Illustrator 21.1.0, SVG Export Plug-In . SVG Version: 6.00 Build 0)  -->
<svg version="1.1" id="Layer_1" xmlns="http://www.w3.org/2000/svg" xmlns:xlink="http://www.w3.org/1999/xlink" x="0px" y="0px"
	 viewBox="0 0 3247.5 1094.8" style="enable-background:new 0 0 3247.5 1094.8;" xml:space="preserve">
<style type="text/css">
	.st0{fill:#FF434C;}
	.st1{fill:#1D1D1B;}
</style>
<g transform="scale(12.376181672036985) translate(10, 10)">
	<g id="SvgjsG1008" transform="translate(29.715514425277714, -9.101676071166992)" xmlns:name="mainText_mainfill">
		<path class="st0" d="M13.2,32.8c1.6,0,3,0.3,4.4,1c1.3,0.6,2.4,1.5,3.2,2.7h0.1v-3.1H25v21.8c0,3.2-1.1,5.9-3.3,7.9
			c-2.2,2.1-5,3.1-8.6,3.1c-4.5,0-8.1-1.3-10.7-3.9l2.8-3.5c2.2,2.4,4.8,3.5,7.8,3.5c2.6,0,4.6-0.7,5.9-2c1.3-1.3,2-3.2,2-5.5v-3.3
			h-0.1c-0.7,1.3-1.8,2.3-3.2,2.9c-1.4,0.6-2.8,1-4.3,1c-3.2,0-5.8-1.1-7.9-3.2s-3.1-4.8-3.2-7.9c0-3.5,1.1-6.3,3.2-8.4
			S9.9,32.9,13.2,32.8L13.2,32.8z M6.5,44.3c0,2.2,0.6,3.9,1.9,5.2s3,2,5.3,2.1c2.2,0,3.9-0.7,5.2-2c1.3-1.3,1.9-3.1,2-5.3
			c0-2.3-0.7-4.1-2-5.5c-1.3-1.4-3.1-2.1-5.3-2.1c-2.2,0-3.9,0.7-5.2,2.2C7.1,40.3,6.5,42.1,6.5,44.3L6.5,44.3z M40,32.8
			c0.8,0,1.4,0.1,1.8,0.3l-0.2,4.5c-0.8-0.2-1.5-0.3-2.1-0.3c-4.1,0-6.1,2.3-6.2,6.8v11.1h-4.1V33.4h4.1v3.4h0.1
			c0.6-1.2,1.4-2.1,2.7-2.8S38.7,32.8,40,32.8z M48.5,33.4v13.1c0,1.7,0.5,3.1,1.4,4c0.9,1,2.1,1.4,3.6,1.4c1.9,0,3.4-0.6,4.5-1.9
			c1.1-1.3,1.6-3,1.6-5.2V33.4h4.1v21.8h-4.1v-3.4h-0.1c-0.6,1.2-1.5,2.2-2.9,2.9s-2.8,1-4.3,1c-2.4,0-4.3-0.8-5.8-2.3
			s-2.1-3.5-2.1-5.9V33.4L48.5,33.4L48.5,33.4z M72.1,20.4v16.1h0.1c0.7-1.1,1.8-2,3.2-2.7s2.9-1,4.4-1c3.3,0,5.9,1.1,8,3.2
			c2.1,2.2,3.1,4.9,3.1,8.2c0,3.3-1,6-3,8.1s-4.7,3.3-8,3.3c-1.5,0-3-0.3-4.3-1s-2.5-1.5-3.3-2.7h-0.1v3.1H68V20.4H72.1L72.1,20.4z
			 M72.1,44.3c0,2.3,0.7,4.1,2,5.5s3,2.1,5.2,2.1c2.2,0,3.9-0.7,5.2-2.1s2-3.2,2-5.5c0-2.2-0.6-4.1-1.9-5.5
			c-1.3-1.4-3.1-2.1-5.3-2.1c-2.2,0-3.9,0.7-5.2,2.1S72.1,42.1,72.1,44.3L72.1,44.3z M144.9,32.8c2.8,0,4.9,0.6,6.6,1.9
			s2.5,3,2.6,5.2v11.7c0,1.1,0.1,2.3,0.2,3.5h-3.7c-0.1-1-0.1-2.1-0.1-3.3h-0.1c-1,1.4-2,2.4-3.3,3s-2.7,0.9-4.3,0.9
			c-2.2,0-4.1-0.6-5.5-1.8c-1.4-1.2-2.1-2.8-2.1-4.7c0-2.5,1-4.4,3.1-5.6c2.1-1.3,5-1.9,8.8-1.9h3.1v-0.8c0-1.5-0.5-2.6-1.4-3.5
			s-2.2-1.3-3.8-1.3c-1.2,0-2.2,0.2-3.1,0.5c-0.9,0.4-1.9,1-3.1,2l-2.5-2.6C138.6,34,141.5,32.9,144.9,32.8L144.9,32.8z M139.3,48.9
			c0,2.4,1.6,3.5,4.7,3.5c1.9,0,3.4-0.6,4.5-1.7c1.1-1.1,1.7-2.7,1.7-4.9v-1.2h-2.3c-2.7,0-4.8,0.3-6.3,1
			C140,46.4,139.3,47.5,139.3,48.9L139.3,48.9z"/>
		<g id="XMLID_5_">
			<g>
				<path class="st1" d="M212.7,41v14.2h-4.1v-13c0-1.7-0.4-3-1.3-4c-0.9-1-2.1-1.5-3.7-1.5c-1.9,0-3.4,0.6-4.5,1.9
					c-1,1.3-1.6,3-1.6,5.2v11.4h-4.1V20.4h4.1v16.3h0.1c0.6-1.2,1.5-2.2,2.8-2.9c1.3-0.7,2.8-1,4.3-1c2.4,0,4.3,0.7,5.8,2.2
					C212,36.5,212.7,38.5,212.7,41z"/>
			</g>
			<g>
			</g>
		</g>
		<g id="XMLID_4_">
			<g>
				<path class="st1" d="M191.9,36.3l-3.1,2.9c-1.5-1.6-3.3-2.4-5.4-2.4c-2,0-3.7,0.7-4.9,2.2c-1.3,1.4-1.9,3.3-1.9,5.6
					c0,2.1,0.7,3.9,2,5.3c1.3,1.4,3,2.1,5.1,2.1c2.2,0,3.9-0.8,5.3-2.4l2.9,2.9c-2,2.2-4.7,3.4-8.3,3.4c-3.3,0-6.1-1-8.2-3.1
					c-2.1-2.1-3.2-4.8-3.2-8.2c0-3.5,1.1-6.2,3.2-8.3c2.1-2.1,4.9-3.1,8.2-3.2C187,32.9,189.8,34,191.9,36.3z"/>
			</g>
			<g>
			</g>
		</g>
		<g id="XMLID_3_">
			<g>
				<path class="st1" d="M169.9,51.2V55c-0.8,0.4-2.1,0.7-3.8,0.7c-1.7,0-2.9-0.3-3.8-0.8c-0.9-0.5-1.6-1.2-2-2.1
					c-0.4-0.9-0.6-2.3-0.6-4.3V37h-4.8v-3.6h4.8v-6.1h4.1v6.1h5.9V37h-5.9v10.5c0,1.4,0.2,2.5,0.6,3.3c0.4,0.8,1.2,1.1,2.5,1.1
					C168.2,51.9,169.2,51.7,169.9,51.2z"/>
			</g>
			<g>
			</g>
		</g>
		<g id="XMLID_2_">
			<g>
				<path class="st1" d="M131.9,41v14.2h-4.1v-13c0-1.7-0.4-3-1.3-4c-0.9-1-2.1-1.5-3.7-1.5c-1.9,0-3.4,0.6-4.5,1.9
					c-1.1,1.3-1.6,3-1.6,5.2v11.4h-4.1V33.4h4.1v3.4h0.1c0.6-1.2,1.5-2.2,2.8-2.9c1.3-0.7,2.8-1,4.3-1c2.5,0,4.4,0.7,5.8,2.2
					C131.1,36.5,131.9,38.5,131.9,41z"/>
			</g>
			<g>
			</g>
		</g>
		<g id="XMLID_1_">
			<g>
				<path class="st1" d="M107.8,44.6c1.2,1,1.7,2.5,1.7,4.3c0,2.1-0.8,3.8-2.4,5c-1.6,1.2-3.8,1.8-6.5,1.9c-2,0-3.7-0.3-5-0.9
					c-1.3-0.6-2.4-1.6-3.4-2.9l3.1-2.6c1.7,1.7,3.4,2.6,5.3,2.6c1.2,0,2.3-0.2,3.1-0.7c0.9-0.5,1.3-1.2,1.3-2c0-1.5-1.4-2.5-4.1-3.1
					c-3.1-0.6-5.1-1.4-6.2-2.5c-1.1-1-1.6-2.4-1.6-4c0-2,0.8-3.6,2.3-4.9c1.6-1.2,3.5-1.8,5.9-1.9c1.7,0,3.1,0.3,4.4,0.9
					c1.3,0.6,2.3,1.5,3,2.7l-3.2,2.4c-1.2-1.4-2.7-2.2-4.5-2.2c-1,0-1.9,0.2-2.6,0.7c-0.7,0.5-1,1-1,1.7c0,1.5,1.4,2.6,4.3,3.1
					C104.7,42.8,106.6,43.6,107.8,44.6z"/>
			</g>
			<g>
			</g>
		</g>
	</g>
	<g id="SvgjsG1009" transform="translate(-41.70923998260497, -15.869675342559814) scale(1.002)" xmlns:name="symbol_mainfill">
		<path class="st0" d="M52.2,84.2c1.2,0,2.1-0.8,2.1-1.9l-0.1-1.1l-1.6-33.4c0-1.6,1.2-3,2.9-3.3l0,0c1.6-0.2,2.9-1.6,2.9-3.3V21
			c0,0,0,0,0-0.1v-3.4c0-0.9-0.8-1.6-1.7-1.6c-0.9,0-1.6,0.7-1.6,1.6v1.2l0,0v14.7c0,0.9-0.6,1.7-1.5,1.7c-0.9,0-1.8-0.7-1.8-1.7
			L51.6,20v-2.5c0-0.9-0.3-1.6-1.2-1.6h-0.8c-0.9,0-1.2,0.7-1.2,1.6V20l-0.2,13.4c0,0.9-0.9,1.7-1.8,1.7c-0.9,0-1.5-0.7-1.5-1.7
			V18.7l0,0v-1.2c0-0.9-0.8-1.6-1.6-1.6c-0.9,0-1.7,0.7-1.7,1.6v3.4c0,0,0,0,0,0.1v20.2c0,1.7,1.2,3.1,2.9,3.3l0,0
			c1.6,0.3,2.9,1.7,2.9,3.3l-1.6,33.4l-0.1,1.1c0,1.2,0.9,1.9,2.1,1.9"/>
	</g>
</g>
</svg>
