
		<svg width="3247.5236334407396" height="1094.8051140531227" xmlns="http://www.w3.org/2000/svg" xmlns:xlink="http://www.w3.org/1999/xlink" version="1.1">
			<g transform="scale(12.376181672036985) translate(10, 10)">
				<g id="SvgjsG1008" rel="mainfill" name="main_text" xmlns:name="mainText_mainfill" transform="translate(29.715514425277714, -9.101676071166992)" fill="#000000"><path fill="#000000" d="M13.156 32.843999999999994 q2.346 0 4.37 0.966 t3.22 2.714 l0.092 0 l0 -3.128 l4.14 0 l0 21.804 q-0.046 4.83 -3.312 7.912 t-8.602 3.128 q-6.762 0 -10.672 -3.91 l2.806 -3.496 q3.266 3.542 7.82 3.542 q3.91 0 5.865 -2.001 t1.955 -5.451 l0 -3.312 l-0.138 0 q-1.104 1.932 -3.197 2.898 t-4.347 0.966 q-4.784 0 -7.912 -3.197 t-3.174 -7.889 q0.046 -5.244 3.151 -8.372 t7.935 -3.174 z M6.486 44.297999999999995 q0 3.266 1.909 5.244 t5.267 2.07 q3.312 0 5.221 -1.978 t1.955 -5.336 q0 -3.404 -1.955 -5.474 t-5.267 -2.116 q-3.266 0 -5.198 2.162 t-1.932 5.428 z M40.038399999999996 32.843999999999994 q1.15 0 1.84 0.276 l-0.184 4.462 q-1.196 -0.322 -2.07 -0.322 q-6.118 0 -6.21 6.808 l0 11.132 l-4.14 0 l0 -21.804 l4.14 0 l0 3.358 l0.092 0 q0.828 -1.748 2.668 -2.829 t3.864 -1.081 z M48.4748 33.396 l0 13.064 q0 2.576 1.357 4.002 t3.611 1.426 q2.898 0 4.485 -1.909 t1.587 -5.175 l0 -11.408 l4.14 0 l0 21.804 l-4.14 0 l0 -3.358 l-0.092 0 q-0.874 1.84 -2.852 2.875 t-4.324 1.035 q-3.634 0 -5.773 -2.254 t-2.139 -5.888 l0 -14.214 l4.14 0 z M72.0912 20.423999999999992 l0 16.1 l0.092 0 q1.104 -1.702 3.197 -2.691 t4.393 -0.989 q4.922 0 8.004 3.243 t3.082 8.211 q0 4.922 -3.013 8.142 t-8.027 3.312 q-2.254 0 -4.347 -0.966 t-3.289 -2.714 l-0.092 0 l0 3.128 l-4.14 0 l0 -34.776 l4.14 0 z M72.0912 44.297999999999995 q0 3.404 1.955 5.451 t5.221 2.139 q3.266 0 5.221 -2.116 t1.955 -5.474 t-1.932 -5.451 t-5.29 -2.139 q-3.266 0 -5.198 2.139 t-1.932 5.451 z M101.4576 32.843999999999994 q2.484 0 4.439 0.92 t3.013 2.668 l-3.22 2.438 q-1.84 -2.162 -4.462 -2.162 q-1.564 0 -2.599 0.69 t-1.035 1.748 q0 2.3 4.278 3.128 q4.186 0.782 5.911 2.3 t1.725 4.324 q0 3.174 -2.415 4.991 t-6.463 1.863 q-3.036 0 -4.991 -0.943 t-3.381 -2.921 l3.128 -2.576 q2.484 2.576 5.29 2.576 q1.84 0 3.128 -0.736 t1.288 -2.024 q0 -2.254 -4.14 -3.128 q-4.6 -0.92 -6.187 -2.461 t-1.587 -3.979 q0 -3.036 2.346 -4.853 t5.934 -1.863 z M123.97 32.843999999999994 q3.68 0 5.773 2.208 t2.139 5.934 l0 14.214 l-4.14 0 l0 -13.018 q0 -2.53 -1.311 -4.002 t-3.657 -1.472 q-2.898 0 -4.485 1.932 t-1.587 5.152 l0 11.408 l-4.14 0 l0 -21.804 l4.14 0 l0 3.358 l0.092 0 q0.874 -1.84 2.829 -2.875 t4.347 -1.035 z M144.9184 32.843999999999994 q4.14 0 6.555 1.886 t2.553 5.244 l0 11.684 q0 1.656 0.184 3.542 l-3.68 0 q-0.138 -1.472 -0.138 -3.312 l-0.092 0 q-1.426 2.116 -3.289 2.99 t-4.347 0.874 q-3.358 0 -5.451 -1.794 t-2.093 -4.738 q0 -3.726 3.128 -5.635 t8.832 -1.909 l3.082 0 l0 -0.782 q0 -2.208 -1.449 -3.473 t-3.795 -1.265 q-1.748 0 -3.059 0.529 t-3.105 1.955 l-2.484 -2.576 q3.542 -3.128 8.648 -3.22 z M139.2604 48.897999999999996 q0 3.542 4.692 3.542 q2.806 0 4.485 -1.679 t1.725 -4.853 l0 -1.196 l-2.346 0 q-4.048 0 -6.302 1.035 t-2.254 3.151 z M163.8428 27.277999999999995 l0 6.118 l5.934 0 l0 3.588 l-5.934 0 l0 10.488 q0 2.116 0.598 3.266 t2.53 1.15 q1.84 0 2.944 -0.644 l0 3.772 q-1.196 0.644 -3.772 0.736 q-2.484 0 -3.841 -0.759 t-1.978 -2.116 t-0.621 -4.255 l0 -11.638 l-4.784 0 l0 -3.588 l4.784 0 l0 -6.118 l4.14 0 z M183.5032 32.89 q5.198 0 8.372 3.45 l-3.128 2.852 q-2.254 -2.438 -5.428 -2.438 q-3.036 0 -4.922 2.162 t-1.886 5.566 q0 3.22 1.978 5.29 t5.06 2.116 q3.266 0 5.29 -2.438 l2.944 2.944 q-2.944 3.358 -8.28 3.358 q-5.014 0 -8.165 -3.128 t-3.243 -8.234 q0.046 -5.198 3.243 -8.326 t8.165 -3.174 z M197.5056 20.423999999999992 l0 16.33 l0.092 0 q0.874 -1.84 2.829 -2.875 t4.347 -1.035 q3.634 0 5.773 2.208 t2.139 5.934 l0 14.214 l-4.14 0 l0 -13.018 q0 -2.53 -1.311 -4.002 t-3.657 -1.472 q-2.898 0 -4.462 1.886 t-1.61 5.198 l0 11.408 l-4.14 0 l0 -34.776 l4.14 0 z" style="fill: #000000;"/></g><defs id="SvgjsDefs1002"/><g id="SvgjsG1009" fill="#000000" rel="mainfill" name="symbol" xmlns:name="symbol_mainfill" transform="translate(-41.70923998260497, -15.869675342559814) scale(1.002)"><path d="M52.217,84.162c1.158,0,2.102-0.787,2.102-1.943l-0.066-1.068l-1.637-33.365c0-1.615,1.248-2.974,2.883-3.283  l0.002-0.001c1.646-0.186,2.877-1.609,2.877-3.306V20.96c0-0.019,0-0.036,0-0.056V17.46c0-0.896-0.754-1.622-1.652-1.622  c-0.895,0-1.646,0.726-1.646,1.622v1.233l0,0v14.703c0,0.918-0.58,1.663-1.498,1.663c-0.92,0-1.797-0.745-1.797-1.663l-0.178-13.396  V17.46c0-0.896-0.318-1.622-1.214-1.622h-0.782c-0.896,0-1.215,0.726-1.215,1.622v2.541l-0.178,13.396  c0,0.918-0.875,1.663-1.795,1.663c-0.918,0-1.499-0.745-1.499-1.663V18.694l0,0V17.46c0-0.896-0.752-1.622-1.647-1.622  c-0.897,0-1.651,0.726-1.651,1.622v3.443c0,0.02,0,0.037,0,0.056v20.236c0,1.696,1.23,3.12,2.877,3.306l0.001,0.001  c1.622,0.252,2.882,1.668,2.882,3.283L45.748,81.15l-0.065,1.068c0,1.156,0.942,1.943,2.102,1.943" fill="#000000" style="fill: #000000;"/></g>
			</g>
		</svg>
	