<svg xmlns="http://www.w3.org/2000/svg" viewBox="0 0 208.58 173.62"><defs><style>.cls-1,.cls-3{fill:#21ce6e;}.cls-1,.cls-2{fill-rule:evenodd;}.cls-2{fill:#69efa4;}</style></defs><title>Ресурс 2</title><g id="Слой_2" data-name="Слой 2"><g id="_1" data-name="1"><path class="cls-1" d="M128.4,59.64a3.49,3.49,0,0,1-3.5-3.48h0a3.49,3.49,0,0,1,3.48-3.5l43-.1A3.49,3.49,0,0,1,174.9,56h0a3.49,3.49,0,0,1-3.48,3.5Z"/><path class="cls-2" d="M9.63,67l.58-.27c0,3.49,0,5.38,0,8.32A9.66,9.66,0,0,0,8,86.17l.6,1.29,1.65-.77c0,6.39,0,17.81,0,21.08L1.56,89.17A16.73,16.73,0,0,1,9.63,67ZM134.31,28.83l32-14.92-.6-1.29A9.64,9.64,0,0,0,152.95,8L108,28.94c-6.59,0-7.82,0-16.7,0L150,1.56a16.73,16.73,0,0,1,22.18,8.07l9,19.25c-17.12,0-31.82-.05-46.79-.05ZM198.42,66,207,84.45A16.73,16.73,0,0,1,199,106.63l-.55.26c-.05-1.21-.1-5.37-.1-8.23a9.65,9.65,0,0,0,2.3-11.21l-2.17-4.66V66Zm-81.27,78.76L58.63,172.07A16.74,16.74,0,0,1,36.45,164l-9-19.21,7.8,0L42.87,161a9.64,9.64,0,0,0,12.76,4.64l44.72-20.85Z"/><path class="cls-3" d="M181.71,144.78H26.87a16.71,16.71,0,0,1-16.69-16.69V45.53A16.71,16.71,0,0,1,26.87,28.84H181.71a16.71,16.71,0,0,1,16.69,16.69v82.56A16.71,16.71,0,0,1,181.71,144.78ZM26.87,35.93a9.61,9.61,0,0,0-9.6,9.6v82.56a9.61,9.61,0,0,0,9.6,9.6H181.71a9.61,9.61,0,0,0,9.6-9.6V45.53a9.61,9.61,0,0,0-9.6-9.6Z"/><path class="cls-1" d="M42.6,102.56a3.49,3.49,0,0,1-3.5-3.48h0a3.49,3.49,0,0,1,3.48-3.5l22.7-.1A3.49,3.49,0,0,1,68.78,99h0a3.49,3.49,0,0,1-3.48,3.5Z"/><path class="cls-1" d="M78.1,102.56a3.49,3.49,0,0,1-3.5-3.48h0a3.49,3.49,0,0,1,3.48-3.5l22.7-.1a3.49,3.49,0,0,1,3.5,3.48h0a3.49,3.49,0,0,1-3.48,3.5Z"/><path class="cls-1" d="M113.1,102.56a3.49,3.49,0,0,1-3.5-3.48h0a3.49,3.49,0,0,1,3.48-3.5l22.7-.1a3.49,3.49,0,0,1,3.5,3.48h0a3.49,3.49,0,0,1-3.48,3.5Z"/><path class="cls-1" d="M148.41,102.56a3.49,3.49,0,0,1-3.5-3.48h0a3.49,3.49,0,0,1,3.48-3.5l22.7-.1a3.49,3.49,0,0,1,3.5,3.48h0a3.49,3.49,0,0,1-3.48,3.5Z"/><path class="cls-1" d="M42.6,120.77a3.49,3.49,0,0,1-3.5-3.48h0a3.49,3.49,0,0,1,3.48-3.5l43-.1a3.49,3.49,0,0,1,3.5,3.48h0a3.49,3.49,0,0,1-3.48,3.5Z"/><path class="cls-1" d="M104.08,120.7a3.49,3.49,0,0,1-3.5-3.48h0a3.49,3.49,0,0,1,3.48-3.5l13.51,0a3.49,3.49,0,0,1,3.5,3.48h0a3.49,3.49,0,0,1-3.48,3.5Z"/><rect class="cls-3" x="39.09" y="61.33" width="23.94" height="17.45" rx="5.67" ry="5.67"/></g></g></svg>