<svg xmlns="http://www.w3.org/2000/svg" viewBox="0 0 277.04 232.51"><defs><style>.cls-1{fill:#21ce6e;}.cls-1,.cls-2,.cls-3{fill-rule:evenodd;}.cls-2{fill:#65eda5;}.cls-3{fill:#ff4b54;}</style></defs><title>Ресурс 5</title><g id="Слой_2" data-name="Слой 2"><g id="_1" data-name="1"><path class="cls-1" d="M8.06,160.4l3.06,5.4,120-137.43-4.23-7.29a4.25,4.25,0,1,1,7.34-4.25L228,178.39a4.25,4.25,0,1,1-7.34,4.25l-3.82-6.59-81.06,14.43a22.49,22.49,0,0,1,1.57,5.1,30.82,30.82,0,0,1-55.22,24.1l-9.82-17.9-37,6.59,2.83,5a4.25,4.25,0,1,1-7,4.77l0,0L.76,164.71a4.25,4.25,0,1,1,7.3-4.31Zm118.87,31.65-45.87,8.17,8,14.64a22.35,22.35,0,0,0,39.22-20.35l-1.34-2.46ZM15.55,173.61l15.26,26.92,181.46-32.3L135.66,36.11Z"/><path class="cls-2" d="M54.49,159.91l17.92-15.15a4.25,4.25,0,1,0-5.47-6.49L49,153.43a4.25,4.25,0,1,0,5.48,6.48Z"/><path class="cls-2" d="M85.29,133.86,145,83.41a4.25,4.25,0,1,0-5.47-6.48L79.81,127.38a4.25,4.25,0,1,0,5.48,6.48Z"/><path class="cls-3" d="M224.32,74.5,259.4,50.82a4.25,4.25,0,1,0-4.74-7L219.58,67.47a4.25,4.25,0,1,0,4.74,7Z"/><path class="cls-3" d="M205.39,54.41l18.55-38a4.25,4.25,0,1,0-7.62-3.72l-18.55,38a4.25,4.25,0,1,0,7.62,3.72Z"/><path class="cls-3" d="M230,108.61l42.23,2.8a4.25,4.25,0,1,0,.57-8.46l-42.23-2.8a4.25,4.25,0,1,0-.56,8.46Z"/><path class="cls-3" d="M177.44,25h0L176,4.26a4.25,4.25,0,1,0-8.46.59L169,25.66a4.25,4.25,0,1,0,8.46-.64Z"/><path class="cls-3" d="M236.23,145.89h0l17.26,11.64a4.25,4.25,0,1,0,4.75-7l-17.3-11.67a4.25,4.25,0,1,0-4.71,7.06Z"/></g></g></svg>