<svg xmlns="http://www.w3.org/2000/svg" viewBox="0 0 225.85 235.83"><defs><style>.cls-1{fill:#21ce6e;}.cls-1,.cls-3,.cls-4{fill-rule:evenodd;}.cls-2,.cls-3{fill:#64f4a3;}.cls-4{fill:#ff4b54;}</style></defs><title>Ресурс 3</title><g id="Слой_2" data-name="Слой 2"><g id="_1" data-name="1"><path class="cls-1" d="M25.29,189.72l8.22,30.68q3.08-1.51,6.18-3A5.12,5.12,0,0,1,34.6,215h0a5.47,5.47,0,0,1-.47-1l-8.84-24.29Zm22,31.62a494.33,494.33,0,0,1,73.28-18.87,457.76,457.76,0,0,1,47.69-5.82c15.22-1.06,30.51-1.39,45.92-1.07l-3-17q-19.88,1.53-39.42,4.6A450.92,450.92,0,0,0,125.5,193a489,489,0,0,0-78.17,28.35ZM218,178.09l3.2,18.17a5.19,5.19,0,0,1-5.35,6.13c-15.74-.38-31.43-.07-47.14,1a450.89,450.89,0,0,0-47,5.74,491.2,491.2,0,0,0-93.27,26.27,5.21,5.21,0,0,1-7.13-4L5.88,143.56,2.38,130.5a5.2,5.2,0,0,1,.16-3.28L1,123.06a5.48,5.48,0,0,1,1.48-5.93l-2-4.27a5.24,5.24,0,0,1-.17-4.13,6.87,6.87,0,0,1,2.26-3A389.9,389.9,0,0,1,41.49,79.09,476.56,476.56,0,0,1,86,55.47a432.42,432.42,0,0,1,44.65-17.79c15.17-5.12,30.72-9.54,46.9-13.54a6.62,6.62,0,0,1,3.83.15,5.31,5.31,0,0,1,3.09,2.81l40.9,87.72a5.52,5.52,0,0,1,.35,1,5.09,5.09,0,0,1-.39,3.52,5.24,5.24,0,0,1-2.48,2.41h0a5.65,5.65,0,0,1-1.05.37l-4.7,1.16,7.76,21.32a5.21,5.21,0,0,1-4.2,7l-2.39.37,5.23,19.51a5.21,5.21,0,0,1-4.8,6.59l-.61,0ZM43.62,215.58a491.1,491.1,0,0,1,85.5-41,450.91,450.91,0,0,1,45.26-13.81q18.35-4.57,37.11-7.72l4.91,18.33a481.34,481.34,0,0,0-92.65,15,496.1,496.1,0,0,0-80.13,29.15ZM210.46,125l7.33,20.14c-15.16,2.35-30.15,5.33-45,9a457.78,457.78,0,0,0-45.95,14,497.91,497.91,0,0,0-86.94,41.71l-21-57.71,22.56,48.38h0a5.44,5.44,0,0,0,.54.93,5.12,5.12,0,0,0,3,2,5.24,5.24,0,0,0,3.44-.36h0a5.61,5.61,0,0,0,1-.56c13.16-9.68,26.75-18.69,40.67-27s28.15-15.81,42.63-22.56a450.93,450.93,0,0,1,43.89-17.7q16.83-5.79,34-10.33ZM45,84.92A469.83,469.83,0,0,1,88.85,61.64a425.4,425.4,0,0,1,43.94-17.53c14.81-5,30-9.33,45.9-13.26L218.38,116c-15,3.69-29.67,8-44.08,12.92a457.82,457.82,0,0,0-44.55,18c-14.63,6.82-29.07,14.47-43.21,22.88Q66.16,181.85,46.78,196L7.08,110.85A383.75,383.75,0,0,1,45,84.92Z"/><path class="cls-2" d="M99.9,78.14l1.37,2.95a15.78,15.78,0,0,1,5.1-.92,10,10,0,0,1,4.58,1.19A13,13,0,0,1,114,83.43a7.91,7.91,0,0,1,1.87,2.42,3.75,3.75,0,0,1,.2,2.78,3.14,3.14,0,0,1-1.72,2q-2.42,1.13-4.49-1.43a6.58,6.58,0,0,0-6-2.7l5.29,11.35q3.5-.5,5.67-.59a11.07,11.07,0,0,1,4.28.69,11.32,11.32,0,0,1,4,2.49,13.56,13.56,0,0,1,3,4.19,14.49,14.49,0,0,1,1.39,6.44,12.27,12.27,0,0,1-1.83,6.25,14.3,14.3,0,0,1-5.16,4.9l3.17,6.8a7.78,7.78,0,0,1,.81,2.48,1.31,1.31,0,0,1-.91,1.32,1.47,1.47,0,0,1-1.53,0,4.11,4.11,0,0,1-1.22-1.69l-3.44-7.37a16,16,0,0,1-5.76.86,13.48,13.48,0,0,1-8.74-3.72,11.29,11.29,0,0,1-2.38-3.29,3.83,3.83,0,0,1-.17-2.79,3.26,3.26,0,0,1,1.82-2.13,3.37,3.37,0,0,1,2.15-.3,3.26,3.26,0,0,1,1.81,1.11q1.71,1.93,2.76,2.88a7.26,7.26,0,0,0,2.51,1.47,7.16,7.16,0,0,0,3.36.26l-5.92-12.69a31.48,31.48,0,0,1-6.59.33,10.7,10.7,0,0,1-5.26-1.85,12.43,12.43,0,0,1-4.13-5.25,12.2,12.2,0,0,1-.88-9q1.31-4.26,6.2-7.14l-1.35-2.89q-1.07-2.29.49-3T99.9,78.14Zm5.59,20.19-4.87-10.45a9.24,9.24,0,0,0-2.4,3.31,6,6,0,0,0,3,6.68A10.8,10.8,0,0,0,105.49,98.33Zm6.92,6.64,5.57,12a7.3,7.3,0,0,0,2.83-4,6.56,6.56,0,0,0-.45-4.51,5.42,5.42,0,0,0-3-3.05A11.54,11.54,0,0,0,112.41,105Z"/><path class="cls-3" d="M55.83,139.89A6.81,6.81,0,1,0,49,133.09,6.82,6.82,0,0,0,55.83,139.89Z"/><path class="cls-3" d="M163,89.06a6.81,6.81,0,1,0-6.81-6.81A6.82,6.82,0,0,0,163,89.06Z"/><path class="cls-1" d="M46.39,100q-9.74,6.29-19.18,13a3.4,3.4,0,1,1-3.95-5.53q9.56-6.83,19.45-13.21A3.4,3.4,0,1,1,46.39,100Z"/><path class="cls-1" d="M124.15,53.12h0a3.4,3.4,0,0,0,2.47,6.35h0q20.23-7.73,41.13-13.59a3.4,3.4,0,1,0-1.84-6.54q-13.65,3.84-27,8.41Q131.5,50.31,124.15,53.12Z"/><path class="cls-1" d="M198.59,112.38q-11.15,3.19-22.14,6.89a3.4,3.4,0,1,1-2.17-6.44q11.14-3.75,22.45-7a3.4,3.4,0,1,1,1.86,6.54Z"/><path class="cls-1" d="M64,172.25q-3.36,2.31-6.68,4.68a3.4,3.4,0,1,1-3.95-5.53q3.37-2.4,6.77-4.75a3.4,3.4,0,1,1,3.85,5.6Z"/><path class="cls-4" d="M168,6.61Q157.08,10,146.33,13.89a3.35,3.35,0,1,1-2.28-6.29q10.89-3.94,22-7.38a3.35,3.35,0,1,1,2,6.4Z"/></g></g></svg>