<svg xmlns="http://www.w3.org/2000/svg" viewBox="0 0 311.83 279.76"><defs><style>.cls-1{fill:#21ce6e;}.cls-1,.cls-2{fill-rule:evenodd;}.cls-2{fill:#ff4b54;}</style></defs><title>Ресурс 2</title><g id="Слой_2" data-name="Слой 2"><g id="_1" data-name="1"><path class="cls-1" d="M102.55,274.65h0a5.11,5.11,0,0,0,10.21,0h0v-.26h0q0-.81,0-1.63a43.18,43.18,0,1,1,86.36,0q0,.82,0,1.63h0v.26h0a5.11,5.11,0,0,0,10.21,0h0q0-.95,0-1.9a53.39,53.39,0,1,0-106.79,0q0,1,0,1.9ZM155.91,154a30.16,30.16,0,1,1-21.32,8.83A30.06,30.06,0,0,1,155.91,154ZM170,170a19.95,19.95,0,1,0,5.84,14.1A19.89,19.89,0,0,0,170,170Z"/><path class="cls-2" d="M91.4,210.43a3.83,3.83,0,1,1-4.76,6h0l0,0-.12-.1a108.51,108.51,0,0,1-39.32-83.69v-.4a6.38,6.38,0,1,1,7.66,0v.38A100.87,100.87,0,0,0,91.4,210.43Z"/><path class="cls-2" d="M115.14,35.18A40.86,40.86,0,0,0,137,68.12h0a3.83,3.83,0,0,1-2.85,7.11h0l-.21-.11-.21-.11a48.5,48.5,0,0,1-26.21-39.71,6.38,6.38,0,1,1,7.67-.14Z"/><path class="cls-2" d="M159.68,11.49V55.82a3.83,3.83,0,1,1-7.66,0V11.49a6.38,6.38,0,1,1,7.66,0Z"/><path class="cls-2" d="M178.08,75l-.15.08-.16.08h0a3.83,3.83,0,0,1-3.05-7h0a40.84,40.84,0,0,0,21.85-32.95,6.38,6.38,0,1,1,7.67.14A48.51,48.51,0,0,1,178.08,75Z"/><path class="cls-2" d="M159.74,81.33v44.33a3.83,3.83,0,0,1-7.66,0V81.33a6.38,6.38,0,1,1,7.66,0Z"/><path class="cls-2" d="M260.81,120.75a6.38,6.38,0,0,1,3.84,11.48v.4a108.51,108.51,0,0,1-39.21,83.6l-.15.13-.05,0h0a3.83,3.83,0,1,1-4.65-6.08h0A100.87,100.87,0,0,0,257,132.62v-.38a6.38,6.38,0,0,1,3.82-11.5Z"/><path class="cls-2" d="M10.31,85.75a40.86,40.86,0,0,0,21.83,32.93h0a3.83,3.83,0,0,1-2.85,7.11h0l-.21-.11-.21-.11A48.5,48.5,0,0,1,2.64,85.89a6.38,6.38,0,1,1,7.67-.14Z"/><path class="cls-2" d="M54.85,62.05v44.33a3.83,3.83,0,0,1-7.66,0V62.05a6.38,6.38,0,1,1,7.66,0Z"/><path class="cls-2" d="M73.25,125.58A48.51,48.51,0,0,0,99.41,85.89a6.38,6.38,0,1,0-7.67-.14A40.84,40.84,0,0,1,69.88,118.7h0a3.83,3.83,0,0,0,3.05,7h0l.16-.08.15-.08Z"/><path class="cls-2" d="M220.09,85.88a6.38,6.38,0,1,0-7.67.14,48.51,48.51,0,0,0,26.21,39.71l.21.11.21.11h0a3.83,3.83,0,0,0,2.85-7.11h0a40.86,40.86,0,0,1-21.83-32.93Z"/><path class="cls-2" d="M264.63,62.19v44.33a3.83,3.83,0,0,1-7.66,0V62.19a6.38,6.38,0,1,1,7.66,0Z"/><path class="cls-2" d="M283,125.71l-.15.08-.16.08h0a3.83,3.83,0,0,1-3.05-7h0a40.84,40.84,0,0,0,21.85-32.95,6.38,6.38,0,1,1,7.67.14A48.51,48.51,0,0,1,283,125.71Z"/></g></g></svg>