<svg xmlns="http://www.w3.org/2000/svg" viewBox="0 0 319.22 290.05"><defs><style>.cls-1,.cls-3{fill:#64f4a3;}.cls-2{fill:#ff4b54;}.cls-2,.cls-3,.cls-4{fill-rule:evenodd;}.cls-4{fill:#21ce6e;}</style></defs><title>Ресурс 1</title><g id="Слой_2" data-name="Слой 2"><g id="_1" data-name="1"><path class="cls-1" d="M280.65,82.46a24.66,24.66,0,1,1-17.5,7.21,24.6,24.6,0,0,1,17.5-7.21Zm-30,91.18a4.29,4.29,0,0,1-8.58,0,38.57,38.57,0,0,1,77.14,0h0a4.29,4.29,0,0,1-8.58,0h0a30,30,0,0,0-60,0Zm41.4-77.93a16.1,16.1,0,1,0,4.72,11.37,16.1,16.1,0,0,0-4.72-11.37Z"/><path class="cls-2" d="M245.11,237.29l-.09.06,0,.06h0a4.32,4.32,0,0,1-7.12-3.25,4.21,4.21,0,0,1,1.49-3.22h0c1.4-1.25,2.74-2.54,4.09-3.88a117.71,117.71,0,0,0,25.79-38.71h0a4.3,4.3,0,0,1,8.29,1.57,4.6,4.6,0,0,1-.29,1.54h0l-.06.14a126,126,0,0,1-27.68,41.5c-1.43,1.43-2.92,2.82-4.4,4.19Z"/><path class="cls-2" d="M80.54,230.93a4.29,4.29,0,0,1-5.63,6.47h0l0-.06-.09-.06c-1.49-1.37-3-2.76-4.4-4.19a125.86,125.86,0,0,1-27.68-41.53h0l-.06-.09v0h0a4.6,4.6,0,0,1-.29-1.54,4.3,4.3,0,0,1,8.29-1.57,116.83,116.83,0,0,0,25.79,38.71c1.34,1.34,2.69,2.62,4.09,3.88Z"/><path class="cls-3" d="M77.14,173.64a4.29,4.29,0,0,1-8.58,0h0a30,30,0,0,0-60,0,4.29,4.29,0,0,1-8.58,0,38.6,38.6,0,0,1,65.84-27.19,38.26,38.26,0,0,1,11.29,27.19Zm-8.58,0h0m-30-91.18a24.61,24.61,0,1,1-24.73,24.63A24.71,24.71,0,0,1,38.57,82.46ZM50,95.71a16.19,16.19,0,0,0-22.82,0,16,16,0,0,0,0,22.77A16.12,16.12,0,1,0,50,95.71Z"/><path class="cls-3" d="M198.68,91.18a4.29,4.29,0,0,1-8.58,0h0a30,30,0,0,0-60,0,4.29,4.29,0,0,1-8.58,0,38.57,38.57,0,0,1,77.14,0Zm-8.58,0h0M160.11,0a24.71,24.71,0,1,1-17.47,7.21A24.67,24.67,0,0,1,160.11,0Zm11.41,13.25A16.15,16.15,0,0,0,144,24.66,15.91,15.91,0,0,0,148.7,36a16.12,16.12,0,1,0,22.82-22.77Z"/><path class="cls-4" d="M118.08,284.35a5.72,5.72,0,0,1-11.44,0,53.46,53.46,0,0,1,106.93,0,5.72,5.72,0,0,1-11.44,0,42,42,0,0,0-84.06,0Zm42-126.75a34.16,34.16,0,1,1-24.16,10,34,34,0,0,1,24.16-10Zm16.1,18a22.62,22.62,0,1,0,6.66,16,22.72,22.72,0,0,0-6.66-16Z"/><path class="cls-2" d="M160.11,102.1a4.28,4.28,0,0,1,4.29,4.28v28.5a4.29,4.29,0,0,1-8.58,0v-28.5a4.28,4.28,0,0,1,4.29-4.28Z"/></g></g></svg>