<svg xmlns="http://www.w3.org/2000/svg" viewBox="0 0 387.37 313.01"><defs><style>.cls-1{fill:#21ce6e;}.cls-1,.cls-2{fill-rule:evenodd;}.cls-2{fill:#ff4b54;}</style></defs><title>Ресурс 7</title><g id="Слой_2" data-name="Слой 2"><g id="_1" data-name="1"><path class="cls-1" d="M310.89,90.41c.07,2.17.07,4.22-.07,6.3A42,42,0,0,1,309.7,104a56.57,56.57,0,0,1-3,8.8,122,122,0,0,1-5.6,11.24c-5,9-12.91,18.26-20.47,27.07h0c-3.3,3.85-6.52,7.62-9.41,11.26a82.62,82.62,0,0,0-7.13,10.22c-7,12.42-7.19,18-7.45,26.36l-.06,1.93c0,.38,0,.76,0,1.1a5.08,5.08,0,0,0,0,.56l70,34,.11-1.37.14-2.07c.55-8,1-14.19,8-26.59,4.13-7.32,11.49-16,18.85-24.77l0,0c7.13-8.46,14.26-16.91,18.06-23.6a81.81,81.81,0,0,0,4.61-9.36,57.79,57.79,0,0,0,2.68-8.15,54.86,54.86,0,0,0,1.29-7.41c.25-2.4.36-4.78.41-7.21v-.12c0-.74.42-1.28.29-1.44l-70.16-34ZM149.24,0l85.61,7.1c3.27.27,4.24,2.19,5.26,4.35h0l.37.78c.09.19.19.37.26.49a125.37,125.37,0,0,1,9.12,18.11,99.6,99.6,0,0,1,5.2,17.29,104.55,104.55,0,0,1,2,17.14,148.37,148.37,0,0,1-.5,17.67,125,125,0,0,1-2.93,18.35A133.57,133.57,0,0,1,248,119.43a136,136,0,0,1-8.22,17.25,133.62,133.62,0,0,1-10.49,15.82c-.2.26-.42.59-.63.9l0,0c-1.43,2.12-2.74,4-6.19,3.76l-85.61-7.1a7.2,7.2,0,0,1-1.89-.44,8.59,8.59,0,0,1-1.82-.94,7.87,7.87,0,0,1-1.12-.92,7,7,0,0,1-.89-1.08,5.74,5.74,0,0,1-.76-1.63,4.81,4.81,0,0,1-.17-1.69,4.62,4.62,0,0,1,.26-1.19,5,5,0,0,1,.57-1.11c3.66-5.38,7-10.8,10-16.27a154.6,154.6,0,0,0,7.87-16.57,126,126,0,0,0,5.45-16.79,109.41,109.41,0,0,0,2.83-17.16,138.17,138.17,0,0,0,.44-16.93,99.27,99.27,0,0,0-2-16.27,93.38,93.38,0,0,0-4.93-16.17,112.75,112.75,0,0,0-8.5-16.66,4.7,4.7,0,0,1-.57-1.34,4.42,4.42,0,0,1-.11-1.43,4.55,4.55,0,0,1,.35-1.4,5.42,5.42,0,0,1,.79-1.3,6.52,6.52,0,0,1,.81-.83,7.39,7.39,0,0,1,1-.71,8.81,8.81,0,0,1,2.38-1A7.44,7.44,0,0,1,149.24,0ZM219.7,121.36a3.14,3.14,0,0,0,.52-6.26l-11.45-.95a3.14,3.14,0,0,0-.52,6.26l11.45.95Zm-21.79-1.81a3.14,3.14,0,1,0,.52-6.26l-31.13-2.58a3.14,3.14,0,0,0-.52,6.26l31.14,2.58Zm9.21,14.75a3.14,3.14,0,0,0,.55-6.26l-18.43-1.62a3.14,3.14,0,0,0-3.39,2.85h0a3.14,3.14,0,0,0,2.85,3.39l18.41,1.62Zm-29-2.55a3.14,3.14,0,0,0,.55-6.26l-18.41-1.62a3.14,3.14,0,0,0-.55,6.26l18.41,1.62Zm60.38-39.39a3.14,3.14,0,0,0,.52-6.26l-11.45-.95a3.14,3.14,0,0,0-.52,6.26l11.45.95Zm-5.08,15.08a3.14,3.14,0,0,0,.52-6.26l-31.14-2.58a3.14,3.14,0,0,0-.52,6.26l31.14,2.58Zm-49-65.81a3.14,3.14,0,0,0,.52-6.26l-11.45-.95a3.14,3.14,0,1,0-.52,6.26l11.45.95Zm31,48.69a3.14,3.14,0,0,0,.52-6.26l-18.42-1.53a3.14,3.14,0,0,0-3.39,2.87h0A3.14,3.14,0,0,0,197,88.8l18.42,1.53ZM186.6,87.94A3.14,3.14,0,0,0,190,85.07h0a3.14,3.14,0,0,0-2.87-3.39l-11.45-.95a3.14,3.14,0,1,0-.52,6.26l11.45.95Zm41-28.77a3.14,3.14,0,0,0,.52-6.26L216.62,52a3.14,3.14,0,1,0-.52,6.26l11.45.95Zm-21.79-1.81a3.14,3.14,0,0,0,.52-6.26l-31.13-2.58a3.14,3.14,0,1,0-.52,6.26l31.14,2.58ZM186.87,27.68a3.14,3.14,0,1,0,.52-6.26L169,19.89a3.14,3.14,0,0,0-.52,6.26l18.42,1.53Zm29,2.41a3.14,3.14,0,0,0,.52-6.26L198,22.3a3.14,3.14,0,0,0-.52,6.26l18.42,1.53Zm-22.47,43.4a3.14,3.14,0,0,0,3.39-2.87h0a3.14,3.14,0,0,0-2.87-3.39L175.53,65.7A3.14,3.14,0,0,0,175,72l18.42,1.53ZM237,77.1a3.14,3.14,0,0,0,.52-6.26L206.4,68.26a3.14,3.14,0,0,0-.52,6.26L237,77.1ZM189.9,103.77a3.14,3.14,0,0,0,.52-6.26L172,96a3.14,3.14,0,0,0-.52,6.26l18.42,1.53Zm36-58.69a3.14,3.14,0,0,0,.52-6.26l-31.14-2.58a3.14,3.14,0,1,0-.52,6.26l31.13,2.58Zm8.46-31.7-85.61-7.1a1.08,1.08,0,0,0-.3,0l-.07,0a117.18,117.18,0,0,1,8.39,16.81,99.52,99.52,0,0,1,5,16.71,105.79,105.79,0,0,1,2.08,17.23,143.42,143.42,0,0,1-.45,17.76,115.17,115.17,0,0,1-3,18.07,132.76,132.76,0,0,1-5.74,17.69,160.52,160.52,0,0,1-8,16.84q-4.46,8.21-9.9,16.25l.19.09a1.12,1.12,0,0,0,.32.08l85.61,7.1c.14,0-.11-.09,0-.2l.52-.81h0c.27-.4.55-.82.89-1.25a127,127,0,0,0,10-15.06,130.07,130.07,0,0,0,7.83-16.46,127.08,127.08,0,0,0,5.4-17.25,119,119,0,0,0,2.79-17.46,143.34,143.34,0,0,0,.49-16.87,97.88,97.88,0,0,0-1.87-16.18A93.4,93.4,0,0,0,244,33.11,119.26,119.26,0,0,0,235.39,16a17.08,17.08,0,0,1-.88-1.7l-.12-.27h0c-.08-.2-.13-.37-.18-.51s.26-.1.11-.12ZM22.64,154.27l78.52-34.85a7.43,7.43,0,0,1,2.37-.58,8.83,8.83,0,0,1,2.57.16,7.41,7.41,0,0,1,1.15.35,6.57,6.57,0,0,1,1,.52,5.42,5.42,0,0,1,1.17,1,4.55,4.55,0,0,1,.79,1.21,4.46,4.46,0,0,1,.36,1.38,4.71,4.71,0,0,1-.09,1.46A112.73,112.73,0,0,0,108,143.43a93.34,93.34,0,0,0,.66,16.9,99.23,99.23,0,0,0,3.51,16,137.94,137.94,0,0,0,6,15.84,109.37,109.37,0,0,0,8.32,15.27,126,126,0,0,0,10.67,14.07A154.61,154.61,0,0,0,150,234.58q6.94,6.27,14.8,12.08a5,5,0,0,1,.91.86,4.63,4.63,0,0,1,.64,1,4.79,4.79,0,0,1,.4,1.65,5.74,5.74,0,0,1-.18,1.79,6.93,6.93,0,0,1-.48,1.31,7.92,7.92,0,0,1-.75,1.24,8.55,8.55,0,0,1-1.41,1.49,7.19,7.19,0,0,1-1.64,1L83.72,291.92a5.31,5.31,0,0,1-4,.32,11.26,11.26,0,0,1-3.1-1.86h0c-.3-.22-.61-.45-.89-.64A133.57,133.57,0,0,1,60.6,278.24a136.09,136.09,0,0,1-13.43-13.59A133.56,133.56,0,0,1,35.85,249.4,125.07,125.07,0,0,1,27.05,233a148.2,148.2,0,0,1-6.28-16.52A104.5,104.5,0,0,1,17,199.66a99.65,99.65,0,0,1-.77-18,125.39,125.39,0,0,1,2.66-20.1c0-.14.06-.34.09-.55s.05-.48.08-.7l0-.16h0c.25-2.38.53-4.51,3.54-5.84Zm63.2,14.17a3.14,3.14,0,1,0-2.55-5.74l-10.5,4.66a3.14,3.14,0,0,0-1.62,4.08l0,.06a3.14,3.14,0,0,0,4.08,1.62l10.56-4.69Zm40,67.61a3.14,3.14,0,1,0-2.55-5.74L112.83,235a3.14,3.14,0,0,0-1.62,4.08v.06l0,0a3.14,3.14,0,0,0,4.12,1.55c3.5-1.54,7-3.11,10.5-4.66Zm-59-8.88h0A3.14,3.14,0,0,0,68.48,223h0a3.14,3.14,0,0,0-4.12-1.59c-5.65,2.4-11.3,5-16.92,7.51a3.14,3.14,0,0,0-1.59,4.14v0A3.14,3.14,0,0,0,50,234.67c5.64-2.48,11.26-5,16.9-7.5Zm20-8.87.06,0a3.14,3.14,0,0,0,1.62-4.08l0-.06a3.14,3.14,0,0,0-4.14-1.6l-10.5,4.66a3.14,3.14,0,0,0-1.62,4.08h0l0,.06a3.14,3.14,0,0,0,4.14,1.58l10.45-4.64ZM48.59,200.19l.06,0a3.14,3.14,0,0,0,1.62-4.08l0-.06a3.14,3.14,0,0,0-4.14-1.6l-10.5,4.66a3.14,3.14,0,1,0,2.55,5.74l10.44-4.64Zm38.1-16.91a3.14,3.14,0,1,0-2.55-5.74L55.59,190.21a3.14,3.14,0,1,0,2.55,5.74l28.56-12.67Zm-5.83-28.06.06,0a3.14,3.14,0,0,0,1.62-4.08V151l0,0a3.14,3.14,0,0,0-4.12-1.54l-16.9,7.5a3.14,3.14,0,0,0-1.6,4.14h0A3.14,3.14,0,0,0,64,162.69l16.84-7.47ZM54.29,167h0a3.14,3.14,0,0,0,1.58-4.14h0a3.14,3.14,0,0,0-4.14-1.58c-4.88,2.6-11.68,5.19-16.9,7.5a3.14,3.14,0,0,0-1.62,4.08h0l0,.06a3.14,3.14,0,0,0,4.14,1.59l16.9-7.5Zm46.11,28.86.06,0a3.14,3.14,0,0,0,1.62-4.08l0-.06a3.14,3.14,0,0,0-4.14-1.6L81,197.59a3.14,3.14,0,0,0-1.62,4.08l0,.06a3.14,3.14,0,0,0,4.08,1.62l16.9-7.5ZM72.15,208.4a3.14,3.14,0,1,0-2.55-5.74L41,215.34a3.14,3.14,0,0,0,2.56,5.73c9.53-4.2,19-8.45,28.56-12.67ZM76,240.16a3.14,3.14,0,1,0-2.55-5.74l-16.9,7.5a3.14,3.14,0,0,0-1.6,4.14h0a3.14,3.14,0,0,0,4.14,1.58l16.9-7.5ZM65.79,177.34l.06,0a3.14,3.14,0,0,0,1.62-4.08l0-.06a3.14,3.14,0,0,0-4.14-1.6L34.75,184.25A3.14,3.14,0,1,0,37.29,190l28.5-12.65Zm37.91-52.17a1.06,1.06,0,0,1,.29-.07h.08a117.1,117.1,0,0,0-2.39,18.63,99.52,99.52,0,0,0,.74,17.44,105.73,105.73,0,0,0,3.7,17,143.39,143.39,0,0,0,6.26,16.62,115.14,115.14,0,0,0,8.76,16.09,132.67,132.67,0,0,0,11.24,14.82,160.46,160.46,0,0,0,13.06,13.28q6.91,6.29,14.69,12.09l-.15.15a1.17,1.17,0,0,1-.27.18L81.18,286.18c-.15.07.08-.12,0-.2l-.76-.59h0c-.39-.29-.79-.59-1.24-.89a126.93,126.93,0,0,1-14.38-10.95,130.09,130.09,0,0,1-12.81-13,127.08,127.08,0,0,1-10.77-14.52,119.07,119.07,0,0,1-8.37-15.58,143.28,143.28,0,0,1-6-15.77,97.92,97.92,0,0,1-3.56-15.9,93.44,93.44,0,0,1-.71-17,119.32,119.32,0,0,1,2.53-19c.08-.37.13-.71.18-1s.07-.59.1-.87l0-.29h0c0-.21,0-.39,0-.53s-.28,0-.14-.07l78.52-34.85Zm243.8,46.48-9.4-4.56a3.31,3.31,0,0,1-1.59-4.29v0l.06-.1a3.31,3.31,0,0,1,4.41-1.51l9.4,4.56A3.31,3.31,0,0,1,352,170l-.06.12a3.31,3.31,0,0,1-4.42,1.53Zm-17.65-8.57-15.12-7.34a3.31,3.31,0,0,1,2.88-5.95l15.13,7.34a3.31,3.31,0,0,1,1.55,4.38l0,0a3.31,3.31,0,0,1-4.42,1.53Zm-23.66-11.48-9.4-4.56a3.31,3.31,0,0,1,2.88-5.95l9.4,4.56a3.31,3.31,0,0,1-2.88,5.95Zm42.9,5.23-9.4-4.56a3.31,3.31,0,0,1-1.59-4.29v0l.06-.1a3.31,3.31,0,0,1,4.4-1.51l9.4,4.56a3.31,3.31,0,0,1-2.88,5.95Zm-17.91-8.69-25.54-12.39a3.31,3.31,0,0,1,2.88-5.95l25.56,12.4a3.31,3.31,0,0,1,1.53,4.42v0a3.31,3.31,0,0,1-4.4,1.51Zm20.21-4.49-15.12-7.34a3.31,3.31,0,0,1-1.59-4.29l.06-.12a3.31,3.31,0,0,1,4.29-1.59c.37,0,13.67,6.63,15.25,7.4a3.31,3.31,0,0,1-2.88,5.95Zm-23.83-11.56-15.12-7.34a3.31,3.31,0,0,1,2.88-5.95l15.12,7.34a3.31,3.31,0,0,1-2.88,5.95Zm11.24,50.45-15.12-7.34a3.31,3.31,0,0,1,2.88-5.95l15.13,7.34a3.31,3.31,0,0,1-2.88,5.95Zm-25.35-12.3-25.56-12.4a3.31,3.31,0,0,1,2.88-5.95l25.56,12.4a3.31,3.31,0,0,1-2.88,5.95Zm53.78-32.92L352.12,130a3.31,3.31,0,0,1-1.59-4.29l.06-.12a3.31,3.31,0,0,1,4.29-1.59h0l15.26,7.4a3.31,3.31,0,0,1,1.51,4.41v0a3.31,3.31,0,0,1-4.4,1.51ZM341.9,125l-25.56-12.4a3.31,3.31,0,0,1,2.88-5.95l25.56,12.4A3.31,3.31,0,0,1,341.9,125ZM310.21,83.68a8.13,8.13,0,0,1,1.7.15,6.93,6.93,0,0,1,1.7.55l70.91,34.41,0,0a5.38,5.38,0,0,1,2.49,3.1,12.74,12.74,0,0,1,.36,4.1v.12c0,2.59-.17,5.18-.45,7.84a61.28,61.28,0,0,1-1.43,8.23,64.19,64.19,0,0,1-3,9,88.15,88.15,0,0,1-5,10.18c-4.14,7.28-11.44,15.95-18.75,24.61h0c-7.18,8.51-14.35,17-18.15,23.75-6.29,11.13-6.67,16.7-7.17,23.85v.05c-.1,1.38-.19,2.81-.36,4.58a5.25,5.25,0,0,1-.16.9l-.07.23,0,0-.3.62a5.19,5.19,0,0,1-1.23,1.62,6,6,0,0,1-1.8,1.09,7,7,0,0,1-1.64.42,7.87,7.87,0,0,1-3-.2,6.68,6.68,0,0,1-1.18-.44L252.8,208.1l0,0a5.62,5.62,0,0,1-1.56-1.42,6.32,6.32,0,0,1-1.05-2.34,9.54,9.54,0,0,1-.25-1.87c0-.59,0-1.17,0-1.74l.07-1.89a61.23,61.23,0,0,1,1.33-13c1.06-4.47,3.06-9.48,7-16.37s10.45-14.55,17.27-22.52l0,0c7.33-8.56,15-17.51,19.7-26a116.06,116.06,0,0,0,5.23-10.47,50.64,50.64,0,0,0,2.74-8,36.08,36.08,0,0,0,1-6.62c.11-2,.09-3.94,0-6.08h0l0-.65a5,5,0,0,1,.09-1.2,4.72,4.72,0,0,1,.38-1.13,4.89,4.89,0,0,1,1-1.42,5.73,5.73,0,0,1,1.52-1,6.81,6.81,0,0,1,1.33-.46,7.7,7.7,0,0,1,1.43-.19h.17Z"/><path class="cls-2" d="M134.62,198.34a98.68,98.68,0,0,0,7.09,10.88,103.12,103.12,0,0,0,8,9.4,3.15,3.15,0,1,0,4.52-4.34,96.12,96.12,0,0,1-7.52-8.82,92.36,92.36,0,0,1-6.63-10.18,3.15,3.15,0,1,0-5.46,3.07Z"/><path class="cls-2" d="M209.88,242.86c15.09,24.43,39,34.54,62.79,40.9,6.12,1.64,12.22,3.28,18.28,5.23a3.4,3.4,0,1,1-2.08,6.45c-5.69-1.83-11.81-3.47-18-5.12-25.58-6.86-51.44-17.31-67.37-44.27a103.16,103.16,0,0,1-11.09-27.87c0-.15,0,.56,0-.46s1.52-3.4,3.4-3.4a3.4,3.4,0,0,1,3.4,3.4v.08a95.13,95.13,0,0,0,10.66,25.06Z"/><path class="cls-2" d="M255.46,239.06a3.4,3.4,0,0,0-3.17,4.63c3.34,11,12.06,18.81,22.49,24.18a96.87,96.87,0,0,0,29,9,3.4,3.4,0,1,0,1-6.68,89.77,89.77,0,0,1-26.94-8.33c-8.95-4.61-16.38-11.16-19.11-20.13a3.4,3.4,0,0,0-3.32-2.65Z"/><path class="cls-2" d="M191.48,276a3.4,3.4,0,0,0-2.85,5.24c8,14.11,21.3,22.92,37.55,27.42,13.8,3.82,30.65,2.42,45.73,4.34a3.38,3.38,0,0,0,3.24-3.39c0-1.85-2.36-3.4-3.4-3.4s-.41,0-.6.05h0c-14.86-1-30.22-.55-43.17-4.13-14.57-4-26.43-11.84-33.46-24.25a3.4,3.4,0,0,0-3-1.88Z"/><path class="cls-2" d="M262.34,132.7h0a3.32,3.32,0,1,1,5.63,3.53h0l0,0a3.35,3.35,0,0,1-.41.52c-2.08,2.62-4.25,5.29-6.42,8h0c-8.52,10.47-19.42,22-22.58,35.1h0a3.22,3.22,0,0,1-3.19,2.65c-1.71,0-3.36-2.22-3.38-3.26s0-.49.07-.73h0l0-.12a3.37,3.37,0,0,1,.1-.33c3.07-14.52,14.65-26.18,23.82-37.46l0,0c2.15-2.64,4.29-5.27,6.34-7.86Z"/><path class="cls-2" d="M0,171.66a108.26,108.26,0,0,1,1-12.09,3.15,3.15,0,1,1,6.2.88,102,102,0,0,0-1,11.37q0,.13,0,.27A3.15,3.15,0,1,1,0,171.66Z"/><path class="cls-2" d="M269.52,35.68a98.67,98.67,0,0,1,3.08,12.62A103.19,103.19,0,0,1,274,60.56a3.15,3.15,0,1,1-6.26.32,96.23,96.23,0,0,0-1.29-11.52,92.28,92.28,0,0,0-2.88-11.81,3.15,3.15,0,1,1,6-1.88Z"/><path class="cls-2" d="M145,42.41a103.09,103.09,0,0,0-3.75-11.76A102.63,102.63,0,0,0,128.91,8a3.15,3.15,0,1,0-5.09,3.66,93.85,93.85,0,0,1,15.12,32.29A3.15,3.15,0,1,0,145,42.41Z"/></g></g></svg>