<svg xmlns="http://www.w3.org/2000/svg" viewBox="0 0 268.55 271.49"><defs><style>.cls-1{fill:#21ce6e;}.cls-1,.cls-2{fill-rule:evenodd;}.cls-2{fill:#ff4b54;}</style></defs><title>Ресурс 6</title><g id="Слой_2" data-name="Слой 2"><g id="_1" data-name="1"><path class="cls-1" d="M226.91,163.22l-8.73-4.83a3.38,3.38,0,0,1-1-.85,3.3,3.3,0,0,1-.6-1.16,3.23,3.23,0,0,1,.2-2.29v0l.12-.21a3.34,3.34,0,0,1,.87-1,3.45,3.45,0,0,1,1.19-.58,3.51,3.51,0,0,1,1.33-.09,3.46,3.46,0,0,1,1.26.41l8.73,4.83a3.36,3.36,0,0,1,1,.85,3.32,3.32,0,0,1,.6,1.16,3.24,3.24,0,0,1-.33,2.52,3.35,3.35,0,0,1-.87,1,3.46,3.46,0,0,1-1.19.58,3.51,3.51,0,0,1-1.33.09,3.47,3.47,0,0,1-1.26-.41Zm-219.2-44a6.48,6.48,0,0,0-1.23.67,5.8,5.8,0,0,0-1,.9,5.88,5.88,0,0,0-.74,1,6.69,6.69,0,0,0-.51,1.16,7.27,7.27,0,0,0-.25,1,8.49,8.49,0,0,0-.12,1c0,.32,0,.65,0,1s0,.65.07,1c.28,2.44.56,4.9.85,7.33s.6,4.94.94,7.51.69,5,1.09,7.56.83,5.06,1.31,7.57,1,5.11,1.61,7.62,1.23,5,2,7.51,1.51,5,2.37,7.36,1.81,4.8,2.84,7.13a126.28,126.28,0,0,0,14.51,24.17c5.61,7.53,11.8,14.68,18,21.79a29.07,29.07,0,0,0,2.12,2.48l.63.7c.22.26.45.51.7.74s.47.44.72.65a8.84,8.84,0,0,0,.85.62,7.64,7.64,0,0,0,.88.48,7.06,7.06,0,0,0,1.24.44,6.26,6.26,0,0,0,1.25.19,6,6,0,0,0,1.36-.09,6.53,6.53,0,0,0,1.34-.4l69.23-28.93.47-.22.46-.26.44-.3.42-.33a7.27,7.27,0,0,0,.66-.63,7.37,7.37,0,0,0,.58-.7,7.1,7.1,0,0,0,.48-.76,6.61,6.61,0,0,0,.37-.8,6.11,6.11,0,0,0,.3-1.05,5.59,5.59,0,0,0,.1-1.06,5.2,5.2,0,0,0-.11-1.05,5.11,5.11,0,0,0-.32-1c-.05-.12-.11-.24-.17-.35s-.13-.23-.21-.34l-.23-.33-.26-.31q-2.45-2.77-4.92-5.59t-4.87-5.64l-1.7-2L119.93,185l11.24.81c0,.24,0,.47,0,.71a8,8,0,0,0,.1.91,6.81,6.81,0,0,0,.33,1.22,5.58,5.58,0,0,0,.57,1.13,5.38,5.38,0,0,0,.87,1,6.27,6.27,0,0,0,1.19.85l65.3,36.15c.18.1.36.19.55.27s.39.16.59.23l.61.18.64.13a7.91,7.91,0,0,0,1.72.08,7.4,7.4,0,0,0,.85-.1,6.93,6.93,0,0,0,.81-.2,6.57,6.57,0,0,0,1-.4,5.68,5.68,0,0,0,.88-.54,5.23,5.23,0,0,0,.75-.69,5.1,5.1,0,0,0,.59-.81,4.26,4.26,0,0,0,.21-.39q.1-.21.18-.42t.13-.43c0-.14.07-.29.09-.46.14-.84.26-1.58.36-2.27s.19-1.33.29-2v0a49.59,49.59,0,0,1,2-9.59,50.5,50.5,0,0,1,6.35-12.09,88.28,88.28,0,0,1,8.19-9.93c3.28-3.55,7-7.29,10.72-11l0,0c7.57-7.63,15.15-15.26,19.6-21.8q1.67-2.46,3-4.75t2.45-4.46q1.09-2.16,1.93-4.21c.57-1.37,1.06-2.71,1.49-4s.8-2.61,1.11-3.87.57-2.5.8-3.74.4-2.46.56-3.67.28-2.43.38-3.64V123c.06-.65.11-1.3.12-2a7.79,7.79,0,0,0-.21-2,5.14,5.14,0,0,0-.93-1.93,6.24,6.24,0,0,0-2-1.62L201,79.82h0l-.79-.44a6.59,6.59,0,0,0-.79-.37,7.58,7.58,0,0,0-.87-.28,8.06,8.06,0,0,0-.91-.18,8.32,8.32,0,0,0-.93-.08c-.24,0-.48,0-.72,0s-.47,0-.71.08-.47.09-.69.15a6.64,6.64,0,0,0-.66.21,6.18,6.18,0,0,0-.85.39,5.42,5.42,0,0,0-.74.5,4.9,4.9,0,0,0-.64.61,4.74,4.74,0,0,0-.51.71,4.42,4.42,0,0,0-.27.53,4.6,4.6,0,0,0-.2.56,4.65,4.65,0,0,0-.12.58,4.94,4.94,0,0,0-.05.6l0,.86c0,.89-.07,1.76-.13,2.62s-.15,1.86-.26,2.77-.29,2-.51,3-.49,2-.84,3.08-.78,2.21-1.29,3.4-1.12,2.47-1.83,3.81c-.56,1.07-1.19,2.19-1.89,3.38q-.84,1.42-1.83,3l-.05-1.33q0-1.14-.12-2.25a193.16,193.16,0,0,0-3.12-23.91c-1.48-7.92-3.3-15.77-5.12-23.58a9,9,0,0,0-2.24-4.37,6,6,0,0,0-3.93-1.76L88.09,46.38a7.24,7.24,0,0,0-2.19.18,7.44,7.44,0,0,0-3.46,1.88,5.31,5.31,0,0,0-1.65,3.41,5.05,5.05,0,0,0,.13,1.55c2.41,10.07,4.82,20.23,6.43,30.46A133.23,133.23,0,0,1,89,114.79q-.08,1-.16,1.89-.18-1.16-.35-2.34-.33-2.28-.62-4.5c-.32-2.44-.62-5-.91-7.52s-.57-5.11-.84-7.67c0-.13,0-.26-.06-.39s-.05-.27-.09-.39-.07-.26-.12-.38-.09-.25-.14-.36a5.08,5.08,0,0,0-.52-.91,5.39,5.39,0,0,0-.7-.8,5.81,5.81,0,0,0-.86-.66,6.53,6.53,0,0,0-1-.51,7,7,0,0,0-.85-.29,7.51,7.51,0,0,0-.9-.18,7.75,7.75,0,0,0-1.84,0l-.54.07-.52.11-.51.15-.49.18L7.71,119.17Zm167.71-.77c-2.32,2.81-4.91,5.64-7.62,8.45s-5.58,5.66-8.38,8.44l-1.23,1.22-7-.51a3.29,3.29,0,0,0-2.35.75,3.12,3.12,0,0,0-1.12,2.16h0a3.09,3.09,0,0,0,.78,2.28,3.27,3.27,0,0,0,2.2,1.08l1.64.12-1.3,1.35-1.68,1.77q-.83.89-1.61,1.76t-1.44,1.63l-19.55-1.41a3.29,3.29,0,0,0-2.35.75,3.12,3.12,0,0,0-1.12,2.16h0a3.09,3.09,0,0,0,.78,2.28,3.27,3.27,0,0,0,2.2,1.09l15.34,1.11-.23.34A61.43,61.43,0,0,0,134,169a44.43,44.43,0,0,0-2.24,10.59l-17.2-1.24-1-1.36q-2.23-3-4.32-6t-4-6.13q-1.91-3.1-3.63-6.31T98.39,152l-.1-.23.4.05,17.06,1.23a3.29,3.29,0,0,0,2.35-.75,3.12,3.12,0,0,0,1.12-2.16v0a3.09,3.09,0,0,0-.78-2.28,3.26,3.26,0,0,0-2.2-1.08l-17.07-1.23a3.3,3.3,0,0,0-1.9.44,3.24,3.24,0,0,0-1,.9q-.74-1.94-1.4-3.89-.75-2.23-1.42-4.49-.31-1.07-.6-2.1t-.54-2c.75-3.13,1.4-6.28,1.93-9.45s.93-6.41,1.18-9.63a138.19,138.19,0,0,0-1.59-31.68c-1.6-10.37-4-20.66-6.44-30.88h0a.69.69,0,0,1,.2,0l79.15,5.72a2.4,2.4,0,0,1,.26.53,6.21,6.21,0,0,1,.2.68c1.19,5.1,2.37,10.21,3.46,15.35s2.08,10.28,2.88,15.45c.72,4.63,1.29,9.31,1.63,14a118.49,118.49,0,0,1,.22,14Zm35.09,35.73-14.1-7.8a3.39,3.39,0,0,1-1-.84,3.3,3.3,0,0,1-.58-1.14,3.24,3.24,0,0,1,.33-2.52l0,0a3.36,3.36,0,0,1,.87-1,3.46,3.46,0,0,1,1.17-.56,3.51,3.51,0,0,1,1.32-.09,3.47,3.47,0,0,1,1.26.41l14.05,7.78a3.37,3.37,0,0,1,1,.85,3.29,3.29,0,0,1,.6,1.16,3.24,3.24,0,0,1-.33,2.53,3.34,3.34,0,0,1-.87,1,3.46,3.46,0,0,1-1.19.58,3.52,3.52,0,0,1-1.32.09,3.47,3.47,0,0,1-1.26-.41Zm-22-12.17-8.73-4.84a3.38,3.38,0,0,1-1-.85,3.29,3.29,0,0,1-.6-1.16,3.23,3.23,0,0,1,.2-2.29v0l.12-.21a3.34,3.34,0,0,1,.87-1,3.48,3.48,0,0,1,3.78-.26l8.78,4.86a3.39,3.39,0,0,1,1,.84,3.3,3.3,0,0,1,.58,1.14,3.24,3.24,0,0,1-.33,2.52l0,0a3.35,3.35,0,0,1-.87,1,3.47,3.47,0,0,1-1.17.56,3.52,3.52,0,0,1-1.33.09,3.46,3.46,0,0,1-1.26-.41Zm40.77,7.49-8.65-4.79a3.36,3.36,0,0,1-1-.85,3.3,3.3,0,0,1-.6-1.16,3.24,3.24,0,0,1,.33-2.53,3.34,3.34,0,0,1,.87-1,3.48,3.48,0,0,1,1.19-.58,3.52,3.52,0,0,1,1.33-.09,3.46,3.46,0,0,1,1.26.41l8.73,4.83a3.38,3.38,0,0,1,1,.85,3.29,3.29,0,0,1,.6,1.16,3.24,3.24,0,0,1-.33,2.53l-.06.09a3.35,3.35,0,0,1-.86.92,3.47,3.47,0,0,1-1.15.55,3.52,3.52,0,0,1-1.33.09,3.47,3.47,0,0,1-1.26-.41l-.08,0Zm-16.54-9.16L189,127.13a3.38,3.38,0,0,1-1-.84,3.3,3.3,0,0,1-.58-1.14,3.24,3.24,0,0,1,.33-2.52l0,0a3.35,3.35,0,0,1,.87-1,3.47,3.47,0,0,1,1.17-.56,3.51,3.51,0,0,1,1.33-.09,3.47,3.47,0,0,1,1.26.41l23.75,13.15a3.36,3.36,0,0,1,1,.85,3.3,3.3,0,0,1,.6,1.16,3.24,3.24,0,0,1-.33,2.53,3.34,3.34,0,0,1-.87,1,3.48,3.48,0,0,1-1.19.58,3.51,3.51,0,0,1-1.33.09,3.46,3.46,0,0,1-1.26-.41Zm19.63-3-14-7.76a3.38,3.38,0,0,1-1-.85,3.29,3.29,0,0,1-.6-1.16,3.23,3.23,0,0,1,.3-2.47l0-.05a3.34,3.34,0,0,1,.87-1,3.47,3.47,0,0,1,1.19-.58,3.52,3.52,0,0,1,1.29-.1,3.46,3.46,0,0,1,1.21.37c1.44.46,7,3.68,10.84,5.93,1.44.84,2.65,1.54,3.28,1.89a3.38,3.38,0,0,1,1,.85,3.32,3.32,0,0,1,.6,1.16,3.24,3.24,0,0,1-.33,2.52l0,0a3.36,3.36,0,0,1-.87,1,3.48,3.48,0,0,1-1.17.56,3.52,3.52,0,0,1-1.33.09,3.47,3.47,0,0,1-1.26-.41l0,0Zm-22.1-12.23-14.05-7.78a3.38,3.38,0,0,1-1-.85,3.3,3.3,0,0,1-.6-1.16,3.24,3.24,0,0,1,.33-2.53,3.34,3.34,0,0,1,.87-1,3.48,3.48,0,0,1,3.78-.26l14.05,7.78a3.38,3.38,0,0,1,1,.85,3.3,3.3,0,0,1,.6,1.16,3.24,3.24,0,0,1-.33,2.53,3.34,3.34,0,0,1-.87,1,3.48,3.48,0,0,1-3.78.26Zm7.57,47.72a3.45,3.45,0,0,0,1.26.41,3.52,3.52,0,0,0,1.33-.09,3.46,3.46,0,0,0,1.19-.58,3.34,3.34,0,0,0,.87-1,3.24,3.24,0,0,0,.33-2.53,3.3,3.3,0,0,0-.6-1.16,3.38,3.38,0,0,0-1-.85l-14.05-7.78a3.47,3.47,0,0,0-1.26-.41,3.51,3.51,0,0,0-1.33.09,3.47,3.47,0,0,0-1.19.58,3.34,3.34,0,0,0-.87,1,3.24,3.24,0,0,0-.33,2.53,3.3,3.3,0,0,0,.6,1.16,3.38,3.38,0,0,0,1,.85l14.05,7.78Zm-23.59-13.06-23.71-13.12a3.38,3.38,0,0,1-1-.85,3.29,3.29,0,0,1-.6-1.16,3.24,3.24,0,0,1,.33-2.53,3.35,3.35,0,0,1,.87-1,3.49,3.49,0,0,1,3.78-.26L197.67,154a3.36,3.36,0,0,1,1,.85,3.32,3.32,0,0,1,.6,1.16,3.24,3.24,0,0,1-.33,2.52l0,0a3.35,3.35,0,0,1-.87,1,3.47,3.47,0,0,1-1.17.56,3.51,3.51,0,0,1-1.32.09,3.47,3.47,0,0,1-1.26-.41l0,0ZM248,132.41l-14-7.73a3.37,3.37,0,0,1-1-.85,3.3,3.3,0,0,1-.6-1.16,3.24,3.24,0,0,1,.33-2.53,3.34,3.34,0,0,1,.87-1,3.48,3.48,0,0,1,1.19-.58,3.52,3.52,0,0,1,1.33-.09,3.47,3.47,0,0,1,1.26.41l14.05,7.78a3.38,3.38,0,0,1,1,.85,3.31,3.31,0,0,1,.6,1.16,3.24,3.24,0,0,1-.33,2.53l-.06.09a3.35,3.35,0,0,1-.86.92,3.46,3.46,0,0,1-1.15.55,3.51,3.51,0,0,1-1.33.09,3.48,3.48,0,0,1-1.26-.41l-.08,0Zm-23.47-13-23.75-13.15a3.38,3.38,0,0,1-1-.85,3.3,3.3,0,0,1-.6-1.16,3.24,3.24,0,0,1,.33-2.52l0,0a3.36,3.36,0,0,1,.87-1,3.47,3.47,0,0,1,1.17-.56,3.51,3.51,0,0,1,1.32-.09,3.46,3.46,0,0,1,1.26.41c5.13,2.79,10.24,5.64,15.35,8.48l8.4,4.67a3.4,3.4,0,0,1,1,.85,3.28,3.28,0,0,1,.6,1.16,3.24,3.24,0,0,1-.33,2.52h0a3.35,3.35,0,0,1-.87,1,3.47,3.47,0,0,1-1.19.58,3.51,3.51,0,0,1-1.32.09,3.47,3.47,0,0,1-1.26-.41Zm-27.23-34c0,.88-.08,1.73-.15,2.57-.07,1-.17,2-.31,2.95s-.35,2.21-.6,3.33-.57,2.28-1,3.47-.87,2.49-1.45,3.83-1.24,2.73-2,4.23-1.66,3.06-2.67,4.74S187,114,185.7,115.93a100.52,100.52,0,0,1-9.8,12.14c-3.69,4-7.69,8-11.59,11.84l0,0c-1.72,1.7-3.41,3.39-5.05,5s-3.22,3.28-4.7,4.87-2.87,3.14-4.12,4.65-2.38,3-3.35,4.41a73,73,0,0,0-4.44,7.36,38,38,0,0,0-2.48,5.89,34.78,34.78,0,0,0-1.22,5.27c-.28,1.74-.46,3.53-.65,5.48l-.23,2.32c0,.16,0,.32,0,.48v.38l64.64,35.78.14-.93L203,219c.26-1.85.51-3.6.85-5.36a40.84,40.84,0,0,1,1.42-5.44,44,44,0,0,1,2.64-6.14,74.69,74.69,0,0,1,4.5-7.47,93.91,93.91,0,0,1,8.67-10.57c3.41-3.7,7.22-7.54,11-11.38l0,0c3.69-3.72,7.38-7.43,10.65-11,1.63-1.76,3.16-3.48,4.54-5.14s2.6-3.23,3.61-4.72,1.94-3,2.78-4.36,1.57-2.75,2.23-4.05,1.24-2.57,1.75-3.8,1-2.43,1.34-3.6.71-2.31,1-3.44.51-2.25.71-3.36.36-2.22.5-3.33.25-2.22.35-3.34v-.12a3.76,3.76,0,0,1,.27-1c0-.11.31,0,.19-.11L197.59,85.58h0l-.3-.17Zm-30.92,28.45c-3.28-.24-7.43-.77-10.62-.77a3.27,3.27,0,0,1-2.2-1.09,3.09,3.09,0,0,1-.78-2.28h0a3.12,3.12,0,0,1,1.12-2.16,3.29,3.29,0,0,1,2.35-.75c3.28.24,7.43.77,10.62.77a3.27,3.27,0,0,1,2.2,1.09,3.09,3.09,0,0,1,.78,2.28h0a3.12,3.12,0,0,1-1.12,2.16,3.29,3.29,0,0,1-2.35.75ZM114.08,84.52l-10.62-.77a3.27,3.27,0,0,1-2.2-1.09,3.09,3.09,0,0,1-.78-2.28h0a3.12,3.12,0,0,1,1.12-2.16,3.29,3.29,0,0,1,2.35-.75c3.53.26,7.09.47,10.62.77a3.27,3.27,0,0,1,2.2,1.09,3.09,3.09,0,0,1,.78,2.28h0a3.12,3.12,0,0,1-1.12,2.16,3.29,3.29,0,0,1-2.35.75Zm20.42,39.25-28.84-2.09a3.26,3.26,0,0,1-2.2-1.09,3.09,3.09,0,0,1-.78-2.28h0a3.12,3.12,0,0,1,1.12-2.16,3.29,3.29,0,0,1,2.35-.75L135,117.47a3.27,3.27,0,0,1,2.2,1.09,3.09,3.09,0,0,1,.78,2.28h0a3.12,3.12,0,0,1-1.12,2.16,3.29,3.29,0,0,1-2.35.75ZM146,112.4l-10.62-.77a3.26,3.26,0,0,1-2.2-1.08,3.09,3.09,0,0,1-.78-2.28v0a3.12,3.12,0,0,1,1.12-2.16,3.29,3.29,0,0,1,2.35-.75l10.61.77a3.27,3.27,0,0,1,2.2,1.09,3.09,3.09,0,0,1,.78,2.28h0a3.12,3.12,0,0,1-1.12,2.16,3.29,3.29,0,0,1-2.35.75Zm-22.91-1.66L106,109.51a3.27,3.27,0,0,1-2.2-1.08,3.09,3.09,0,0,1-.78-2.28h0a3.12,3.12,0,0,1,1.12-2.16,3.29,3.29,0,0,1,2.35-.75l17.07,1.23a3.26,3.26,0,0,1,2.2,1.08,3.09,3.09,0,0,1,.78,2.28v0a3.12,3.12,0,0,1-1.12,2.16,3.29,3.29,0,0,1-2.35.75Zm-9.3,28.89c-3.28-.24-7.43-.77-10.62-.77a3.27,3.27,0,0,1-2.2-1.09,3.09,3.09,0,0,1-.78-2.28h0a3.12,3.12,0,0,1,1.12-2.16,3.29,3.29,0,0,1,2.35-.75c3.53.26,7.09.47,10.62.77a3.26,3.26,0,0,1,2.2,1.08,3.09,3.09,0,0,1,.78,2.28h0a3.12,3.12,0,0,1-1.12,2.16,3.29,3.29,0,0,1-2.35.75Zm27.53,2-17.07-1.23a3.26,3.26,0,0,1-2.2-1.08,3.09,3.09,0,0,1-.78-2.28h0a3.12,3.12,0,0,1,1.12-2.16,3.29,3.29,0,0,1,2.35-.75c5.27.38,12,1.23,17.07,1.23a3.26,3.26,0,0,1,2.2,1.09,3.09,3.09,0,0,1,.78,2.28h0a3.12,3.12,0,0,1-1.12,2.16,3.29,3.29,0,0,1-2.35.75ZM162.23,88l-10.62-.77a3.26,3.26,0,0,1-2.2-1.08,3.09,3.09,0,0,1-.78-2.28h0a3.12,3.12,0,0,1,1.12-2.16,3.29,3.29,0,0,1,2.35-.75c3.28.24,7.43.77,10.62.77a3.26,3.26,0,0,1,2.2,1.09,3.09,3.09,0,0,1,.78,2.28h0a3.12,3.12,0,0,1-1.12,2.16,3.29,3.29,0,0,1-2.35.75Zm-1.44,12.64L132,98.55a3.27,3.27,0,0,1-2.2-1.09,3.09,3.09,0,0,1-.78-2.28h0A3.12,3.12,0,0,1,130.09,93a3.29,3.29,0,0,1,2.35-.75l28.85,2.09a3.26,3.26,0,0,1,2.2,1.08,3.09,3.09,0,0,1,.78,2.28h0a3.12,3.12,0,0,1-1.12,2.16,3.29,3.29,0,0,1-2.35.75Zm-38.25-2.77c-5.68-.41-11.41-.75-17.07-1.23a3.27,3.27,0,0,1-2.2-1.08,3.09,3.09,0,0,1-.78-2.28h0a3.12,3.12,0,0,1,1.12-2.16,3.29,3.29,0,0,1,2.35-.75c5.27.38,11.95,1.23,17.07,1.23a3.26,3.26,0,0,1,2.2,1.08,3.09,3.09,0,0,1,.78,2.28h0a3.12,3.12,0,0,1-1.12,2.16,3.29,3.29,0,0,1-2.35.75Zm18.55-11.4L124,85.24a3.26,3.26,0,0,1-2.2-1.08,3.09,3.09,0,0,1-.78-2.28v0a3.12,3.12,0,0,1,1.12-2.16,3.29,3.29,0,0,1,2.35-.75l17.07,1.23a3.26,3.26,0,0,1,2.2,1.08,3.09,3.09,0,0,1,.78,2.28h0a3.12,3.12,0,0,1-1.12,2.16,3.29,3.29,0,0,1-2.35.75ZM118.65,72.35l-17.07-1.23A3.26,3.26,0,0,1,99.38,70a3.09,3.09,0,0,1-.78-2.28v0a3.12,3.12,0,0,1,1.12-2.16,3.29,3.29,0,0,1,2.35-.75l17.07,1.23a3.27,3.27,0,0,1,2.2,1.08,3.09,3.09,0,0,1,.78,2.28h0A3.12,3.12,0,0,1,121,71.6a3.29,3.29,0,0,1-2.35.75ZM159,75.27c-9.59-.69-19.27-1.27-28.85-2.09A3.26,3.26,0,0,1,128,72.1a3.09,3.09,0,0,1-.78-2.28h0a3.12,3.12,0,0,1,1.12-2.16,3.29,3.29,0,0,1,2.35-.75c8.91.64,20.19,2.09,28.84,2.09a3.26,3.26,0,0,1,2.2,1.08,3.09,3.09,0,0,1,.78,2.28h0a3.12,3.12,0,0,1-1.12,2.16,3.29,3.29,0,0,1-2.35.75ZM74.82,129.19l-9.43,3.94h0a3.51,3.51,0,0,1-2.42,0,3.45,3.45,0,0,1-1.12-.71,3.31,3.31,0,0,1-.76-1.07l-.08-.17v0a3.23,3.23,0,0,1-.2-1.16,3.28,3.28,0,0,1,.24-1.21,3.33,3.33,0,0,1,.73-1.09,3.39,3.39,0,0,1,1.1-.73L72.3,123h0a3.51,3.51,0,0,1,2.42,0,3.45,3.45,0,0,1,1.12.71,3.31,3.31,0,0,1,.76,1.07l.08.17h0a3.23,3.23,0,0,1,.2,1.16,3.27,3.27,0,0,1-.24,1.21,3.34,3.34,0,0,1-.73,1.09,3.43,3.43,0,0,1-1.1.73Zm-1.66,67L48,206.67a3.48,3.48,0,0,1-1.3.27,3.52,3.52,0,0,1-1.31-.24,3.45,3.45,0,0,1-1.12-.7,3.32,3.32,0,0,1-.76-1.07,3.23,3.23,0,0,1-.28-1.27,3.27,3.27,0,0,1,.24-1.28,3.34,3.34,0,0,1,.73-1.09,3.41,3.41,0,0,1,1.1-.73L70.47,190a3.48,3.48,0,0,1,1.3-.27,3.52,3.52,0,0,1,1.31.24,3.45,3.45,0,0,1,1.12.71,3.31,3.31,0,0,1,.76,1.07,3.23,3.23,0,0,1,.28,1.27,3.27,3.27,0,0,1-.24,1.28,3.34,3.34,0,0,1-.73,1.09,3.43,3.43,0,0,1-1.1.73Zm-22.81-3L41.1,197a3.48,3.48,0,0,1-1.3.27,3.52,3.52,0,0,1-1.31-.24,3.45,3.45,0,0,1-1.12-.71,3.31,3.31,0,0,1-.76-1.07,3.23,3.23,0,0,1-.28-1.27,3.27,3.27,0,0,1,.24-1.28,3.34,3.34,0,0,1,.73-1.09,3.42,3.42,0,0,1,1.1-.73L47.66,187a3.48,3.48,0,0,1,1.3-.27,3.52,3.52,0,0,1,1.31.24,3.45,3.45,0,0,1,1.12.71,3.31,3.31,0,0,1,.76,1.07,3.23,3.23,0,0,1,.28,1.27,3.27,3.27,0,0,1-.24,1.28,3.34,3.34,0,0,1-.73,1.09,3.41,3.41,0,0,1-1.1.73ZM76,182.41l-14.9,6.22a3.48,3.48,0,0,1-1.3.27,3.52,3.52,0,0,1-1.31-.24,3.45,3.45,0,0,1-1.12-.71,3.31,3.31,0,0,1-.76-1.07,3.25,3.25,0,0,1,0-2.55,3.34,3.34,0,0,1,.73-1.09,3.4,3.4,0,0,1,1.1-.73l14.9-6.22a3.48,3.48,0,0,1,1.3-.27,3.52,3.52,0,0,1,1.31.24A3.45,3.45,0,0,1,77,177a3.31,3.31,0,0,1,.76,1.07,3.24,3.24,0,0,1,.28,1.27,3.28,3.28,0,0,1-.24,1.28,3.34,3.34,0,0,1-.73,1.09,3.41,3.41,0,0,1-1.1.73Zm3.88-27.91-9.14,3.82a3.48,3.48,0,0,1-1.3.27,3.52,3.52,0,0,1-1.31-.24,3.45,3.45,0,0,1-1.12-.71,3.31,3.31,0,0,1-.76-1.07A3.23,3.23,0,0,1,66,155.3a3.27,3.27,0,0,1,.24-1.28,3.34,3.34,0,0,1,.73-1.09,3.43,3.43,0,0,1,1.1-.73l9.26-3.87a3.48,3.48,0,0,1,1.3-.27,3.52,3.52,0,0,1,1.31.24A3.45,3.45,0,0,1,81,149a3.31,3.31,0,0,1,.76,1.07l.08.17v0a3.24,3.24,0,0,1,.2,1.16,3.27,3.27,0,0,1-.24,1.21,3.33,3.33,0,0,1-.73,1.09,3.41,3.41,0,0,1-1.1.73l-.12.05Zm-18.29,7.64-14.9,6.22a3.48,3.48,0,0,1-1.3.27,3.53,3.53,0,0,1-1.31-.24,3.45,3.45,0,0,1-1.12-.71,3.31,3.31,0,0,1-.76-1.07,3.23,3.23,0,0,1-.28-1.27,3.27,3.27,0,0,1,.24-1.28A3.34,3.34,0,0,1,42.9,163a3.43,3.43,0,0,1,1.1-.73L58.89,156a3.48,3.48,0,0,1,1.3-.27,3.53,3.53,0,0,1,1.31.24,3.45,3.45,0,0,1,1.12.7,3.31,3.31,0,0,1,.76,1.07,3.25,3.25,0,0,1,0,2.55,3.34,3.34,0,0,1-.73,1.09,3.41,3.41,0,0,1-1.1.73ZM32.77,146.76l-9.43,3.94h0a3.51,3.51,0,0,1-2.42,0,3.45,3.45,0,0,1-1.12-.7,3.32,3.32,0,0,1-.76-1.07l-.08-.17v0a3.24,3.24,0,0,1,0-2.36,3.34,3.34,0,0,1,.73-1.09,3.4,3.4,0,0,1,1.1-.73l9.26-3.87a3.48,3.48,0,0,1,1.3-.27,3.52,3.52,0,0,1,1.31.24,3.44,3.44,0,0,1,1.12.71,3.31,3.31,0,0,1,.76,1.07,3.23,3.23,0,0,1,.28,1.27,3.27,3.27,0,0,1-.25,1.28,3.34,3.34,0,0,1-.73,1.09,3.43,3.43,0,0,1-1.1.73Zm5.73,25-9.43,3.94h0a3.51,3.51,0,0,1-2.42,0,3.45,3.45,0,0,1-1.12-.7,3.31,3.31,0,0,1-.76-1.07l-.08-.17v0a3.24,3.24,0,0,1,0-2.36,3.34,3.34,0,0,1,.73-1.09,3.41,3.41,0,0,1,1.1-.73l9.26-3.87a3.48,3.48,0,0,1,1.3-.27,3.52,3.52,0,0,1,1.31.24,3.45,3.45,0,0,1,1.12.7,3.32,3.32,0,0,1,.76,1.07,3.24,3.24,0,0,1,.28,1.27,3.28,3.28,0,0,1-.24,1.28,3.34,3.34,0,0,1-.73,1.09,3.43,3.43,0,0,1-1.1.73ZM50.67,152.4,25.49,162.92a3.48,3.48,0,0,1-1.3.27,3.52,3.52,0,0,1-1.31-.24,3.45,3.45,0,0,1-1.12-.71,3.31,3.31,0,0,1-.76-1.07,3.24,3.24,0,0,1-.28-1.27,3.28,3.28,0,0,1,.24-1.28,3.34,3.34,0,0,1,.73-1.09,3.41,3.41,0,0,1,1.1-.73l25.35-10.59h0a3.51,3.51,0,0,1,2.42,0,3.45,3.45,0,0,1,1.12.7,3.31,3.31,0,0,1,.76,1.07l.08.17v0a3.23,3.23,0,0,1,.2,1.15,3.27,3.27,0,0,1-.24,1.21,3.35,3.35,0,0,1-.73,1.09,3.39,3.39,0,0,1-1.1.73Zm23-9.61-15,6.25h0a3.51,3.51,0,0,1-2.42,0,3.44,3.44,0,0,1-1.12-.71,3.31,3.31,0,0,1-.76-1.07l-.08-.17h0a3.23,3.23,0,0,1-.2-1.16,3.27,3.27,0,0,1,.24-1.21,3.34,3.34,0,0,1,.73-1.09,3.42,3.42,0,0,1,1.1-.73l15.07-6.3h0a3.51,3.51,0,0,1,2.42,0,3.44,3.44,0,0,1,1.12.71,3.31,3.31,0,0,1,.76,1.07l.08.17v0a3.24,3.24,0,0,1,.2,1.15,3.27,3.27,0,0,1-.24,1.21,3.34,3.34,0,0,1-.73,1.09,3.41,3.41,0,0,1-1.1.73l-.12.05Zm-16.81-6.1L42,142.92a3.48,3.48,0,0,1-1.3.27,3.52,3.52,0,0,1-1.31-.24,3.45,3.45,0,0,1-1.12-.7,3.31,3.31,0,0,1-.76-1.07,3.23,3.23,0,0,1-.28-1.27,3.27,3.27,0,0,1,.24-1.28,3.34,3.34,0,0,1,.73-1.09,3.39,3.39,0,0,1,1.1-.73l14.9-6.22a3.48,3.48,0,0,1,1.3-.27,3.52,3.52,0,0,1,1.31.24,3.45,3.45,0,0,1,1.12.71,3.32,3.32,0,0,1,.76,1.07,3.24,3.24,0,0,1,.28,1.27,3.28,3.28,0,0,1-.25,1.28A3.34,3.34,0,0,1,58,136a3.43,3.43,0,0,1-1.1.73Zm26.56,30.18-14.78,6.17a3.48,3.48,0,0,1-1.3.27,3.52,3.52,0,0,1-1.31-.24,3.44,3.44,0,0,1-1.12-.7,3.31,3.31,0,0,1-.76-1.07,3.24,3.24,0,0,1-.28-1.27,3.28,3.28,0,0,1,.24-1.28,3.34,3.34,0,0,1,.73-1.09,3.41,3.41,0,0,1,1.1-.73l14.9-6.22a3.48,3.48,0,0,1,1.3-.27,3.52,3.52,0,0,1,1.31.24,3.45,3.45,0,0,1,1.12.71,3.31,3.31,0,0,1,.76,1.07l.08.17v0a3.23,3.23,0,0,1,.2,1.16,3.27,3.27,0,0,1-.24,1.21,3.34,3.34,0,0,1-.73,1.09,3.41,3.41,0,0,1-1.1.73l-.12.05Zm-24,10L34.29,187.41a3.48,3.48,0,0,1-1.3.27,3.53,3.53,0,0,1-1.31-.24,3.44,3.44,0,0,1-1.12-.7,3.31,3.31,0,0,1-.76-1.07,3.23,3.23,0,0,1-.28-1.27,3.27,3.27,0,0,1,.24-1.28,3.34,3.34,0,0,1,.73-1.09,3.43,3.43,0,0,1,1.1-.73l25.18-10.52a3.48,3.48,0,0,1,1.3-.27,3.53,3.53,0,0,1,1.31.24,3.45,3.45,0,0,1,1.12.7,3.31,3.31,0,0,1,.76,1.07,3.24,3.24,0,0,1,.28,1.27,3.27,3.27,0,0,1-.24,1.28,3.34,3.34,0,0,1-.73,1.09,3.41,3.41,0,0,1-1.1.73Zm12.3-59.28-14.9,6.22a3.48,3.48,0,0,1-1.3.27,3.52,3.52,0,0,1-1.31-.24,3.45,3.45,0,0,1-1.12-.71,3.31,3.31,0,0,1-.76-1.07l-.08-.17v0a3.23,3.23,0,0,1-.2-1.16,3.26,3.26,0,0,1,.24-1.21,3.34,3.34,0,0,1,.73-1.09,3.42,3.42,0,0,1,1.1-.73l14.9-6.22a3.48,3.48,0,0,1,1.3-.27,3.53,3.53,0,0,1,1.31.24,3.45,3.45,0,0,1,1.12.71,3.31,3.31,0,0,1,.76,1.07,3.24,3.24,0,0,1,.28,1.27,3.28,3.28,0,0,1-.25,1.28,3.34,3.34,0,0,1-.73,1.09,3.41,3.41,0,0,1-1.1.73ZM46.8,128,21.45,138.63h0a3.49,3.49,0,0,1-1.19.2,3.53,3.53,0,0,1-1.24-.24,3.45,3.45,0,0,1-1.12-.7,3.32,3.32,0,0,1-.76-1.07l-.08-.17v0a3.24,3.24,0,0,1-.2-1.16,3.27,3.27,0,0,1,.25-1.21,3.34,3.34,0,0,1,.73-1.09,3.39,3.39,0,0,1,1.1-.73L44.1,121.92a3.48,3.48,0,0,1,1.3-.27,3.52,3.52,0,0,1,1.31.24,3.45,3.45,0,0,1,1.12.7,3.32,3.32,0,0,1,.76,1.07,3.24,3.24,0,0,1,.28,1.27,3.28,3.28,0,0,1-.24,1.28,3.34,3.34,0,0,1-.73,1.09,3.42,3.42,0,0,1-1.1.73ZM79.41,96.47c.26,2.37.51,4.72.78,7s.57,4.86.89,7.33.68,5,1.07,7.48.81,5,1.28,7.4,1,5,1.58,7.42,1.22,4.88,1.93,7.29,1.49,4.81,2.35,7.18,1.8,4.73,2.84,7.06,2.16,4.62,3.36,6.88S98,166,99.3,168.19s2.75,4.33,4.21,6.44,3,4.2,4.52,6.25,3.07,4,4.67,6,3.2,3.91,4.83,5.83,3.15,3.68,4.74,5.51,3,3.41,4.49,5.1L58,232l0,0-.16-.13-.24-.23-.25-.28-2.73-3.16c-12-13.87-24.14-27.86-31.45-44.35q-1.47-3.32-2.7-6.77t-2.25-7q-1-3.53-1.86-7.17t-1.53-7.27q-.71-3.72-1.28-7.43c-.39-2.47-.74-5-1.07-7.42s-.63-4.87-.92-7.35-.57-4.91-.84-7.29c0-.14,0-.26,0-.38s0-.23,0-.32,0-.14,0-.21v0L79.41,96.47Z"/><path class="cls-2" d="M190.86,29.44a129.83,129.83,0,0,1,19.93,11.84,128.3,128.3,0,0,1,17.35,15,3.83,3.83,0,1,1-5.5,5.29,120.67,120.67,0,0,0-16.3-14.14,122.16,122.16,0,0,0-18.77-11.12,3.83,3.83,0,1,1,3.3-6.9Z"/><path class="cls-2" d="M99.67,247l5.46,14.13a4.25,4.25,0,1,1-7.93,3.07l-5.46-14.13A4.25,4.25,0,0,1,99.67,247Z"/><path class="cls-2" d="M179.79,246.66l-8.23,22.06a4.25,4.25,0,1,1-8-3l8.23-22.06a4.25,4.25,0,1,1,8,3Z"/><path class="cls-2" d="M140,232.6v23.55a4.25,4.25,0,1,1-8.5,0V232.6a4.25,4.25,0,0,1,8.5,0Z"/><path class="cls-2" d="M104.64,0a3.83,3.83,0,0,1,.67,7.6A140.65,140.65,0,0,0,54.15,32.26,144,144,0,0,0,16.32,75.6q-2.51,4.41-4.8,9.21-2.21,4.64-4,9.3A3.83,3.83,0,1,1,.36,91.32q2-5,4.25-9.8t5.07-9.69A151.62,151.62,0,0,1,49.52,26.19a148.34,148.34,0,0,1,53.92-26,3.83,3.83,0,0,1,1.2-.19Z"/><path class="cls-2" d="M34.66,83.59A3.83,3.83,0,1,1,28,79.82,129.77,129.77,0,0,1,50.94,50.47,3.83,3.83,0,1,1,56.21,56a121.41,121.41,0,0,0-21.56,27.6Z"/></g></g></svg>