<svg xmlns="http://www.w3.org/2000/svg" viewBox="0 0 387.6 324.97"><defs><style>.cls-1{fill:#21ce6e;}.cls-1,.cls-2,.cls-3{fill-rule:evenodd;}.cls-2{fill:#ff4b54;}.cls-3{fill:#65eda5;}</style></defs><title>Ресурс 8</title><g id="Слой_2" data-name="Слой 2"><g id="_1" data-name="1"><path class="cls-1" d="M309.23,132.61c-.51,2.11-1.05,4.09-1.73,6.06a42.06,42.06,0,0,1-3,6.76,56.54,56.54,0,0,1-5.23,7.7,122,122,0,0,1-8.37,9.36c-7.22,7.39-17.28,14.19-26.9,20.7h0c-4.2,2.84-8.3,5.62-12.05,8.37a82.59,82.59,0,0,0-9.58,8c-10,10.12-11.69,15.46-14.16,23.46l-.56,1.84c-.11.36-.23.73-.31,1.05a5,5,0,0,0-.12.55l58.55,51.28.47-1.29.69-2c2.64-7.55,4.71-13.43,14.73-23.53,5.92-6,15.32-12.43,24.72-18.9l0,0c9.11-6.27,18.23-12.54,23.66-18a81.74,81.74,0,0,0,6.92-7.81,57.75,57.75,0,0,0,4.74-7.15,54.85,54.85,0,0,0,3.2-6.81c.88-2.25,1.61-4.52,2.3-6.84l0-.12c.21-.71.74-1.13.66-1.31l-58.67-51.38ZM149.23,0l85.61,7.1c3.27.27,4.24,2.19,5.26,4.35h0l.37.78c.09.19.19.37.26.49a125.37,125.37,0,0,1,9.12,18.11,99.6,99.6,0,0,1,5.2,17.29,104.55,104.55,0,0,1,2,17.14,148.35,148.35,0,0,1-.5,17.67,125,125,0,0,1-2.93,18.35A133.57,133.57,0,0,1,248,119.43a136,136,0,0,1-8.22,17.25,133.65,133.65,0,0,1-10.49,15.82c-.2.26-.42.59-.63.9l0,0c-1.43,2.12-2.74,4-6.19,3.76l-85.61-7.1a7.2,7.2,0,0,1-1.89-.44,8.59,8.59,0,0,1-1.82-.94,7.86,7.86,0,0,1-1.12-.92,7,7,0,0,1-.89-1.08,5.74,5.74,0,0,1-.76-1.63,4.81,4.81,0,0,1-.17-1.69,4.62,4.62,0,0,1,.26-1.19,5,5,0,0,1,.57-1.11c3.66-5.38,7-10.8,10-16.27a154.6,154.6,0,0,0,7.87-16.57,126,126,0,0,0,5.45-16.79,109.42,109.42,0,0,0,2.83-17.16,138.19,138.19,0,0,0,.44-16.93,99.27,99.27,0,0,0-2-16.27,93.38,93.38,0,0,0-4.93-16.17,112.75,112.75,0,0,0-8.5-16.66,4.69,4.69,0,0,1-.57-1.34,4.42,4.42,0,0,1-.11-1.43,4.55,4.55,0,0,1,.35-1.4,5.41,5.41,0,0,1,.79-1.3,6.52,6.52,0,0,1,.81-.83,7.39,7.39,0,0,1,1-.71,8.81,8.81,0,0,1,2.38-1A7.44,7.44,0,0,1,149.23,0Zm85.09,13.35c.15,0-.13,0-.11.12s.1.31.18.51h0l.12.27a17.08,17.08,0,0,0,.88,1.7A119.25,119.25,0,0,1,244,33.11a93.39,93.39,0,0,1,4.91,16.27,97.89,97.89,0,0,1,1.87,16.18,143.36,143.36,0,0,1-.49,16.87,118.94,118.94,0,0,1-2.79,17.46,127.05,127.05,0,0,1-5.4,17.25,130.07,130.07,0,0,1-7.83,16.46,127,127,0,0,1-10,15.06c-.33.43-.61.85-.89,1.25h0l-.52.81c-.07.11.18.21,0,.2l-85.61-7.1a1.12,1.12,0,0,1-.32-.08l-.19-.09q5.41-8,9.9-16.25a160.52,160.52,0,0,0,8-16.84,132.79,132.79,0,0,0,5.74-17.69,115.19,115.19,0,0,0,3-18.07,143.42,143.42,0,0,0,.45-17.76,105.78,105.78,0,0,0-2.08-17.23,99.51,99.51,0,0,0-5-16.71,117.18,117.18,0,0,0-8.39-16.81l.07,0a1.08,1.08,0,0,1,.3,0l85.61,7.1ZM22.63,154.27c-3,1.33-3.29,3.46-3.54,5.84h0l0,.16c0,.22,0,.45-.08.7s-.06.41-.09.55a125.38,125.38,0,0,0-2.66,20.1,99.63,99.63,0,0,0,.77,18,104.49,104.49,0,0,0,3.75,16.85A148.22,148.22,0,0,0,27,233a125.06,125.06,0,0,0,8.8,16.37,133.56,133.56,0,0,0,11.32,15.26,136.1,136.1,0,0,0,13.43,13.59,133.57,133.57,0,0,0,15.11,11.49c.29.19.59.42.89.64h0a11.26,11.26,0,0,0,3.1,1.86,5.31,5.31,0,0,0,4-.32l78.52-34.85a7.19,7.19,0,0,0,1.64-1,8.55,8.55,0,0,0,1.41-1.49,7.92,7.92,0,0,0,.75-1.24,6.94,6.94,0,0,0,.48-1.31,5.74,5.74,0,0,0,.18-1.79,4.79,4.79,0,0,0-.4-1.65,4.63,4.63,0,0,0-.64-1,5,5,0,0,0-.91-.86q-7.84-5.81-14.8-12.08a154.62,154.62,0,0,1-12.88-13.06,126,126,0,0,1-10.67-14.07,109.39,109.39,0,0,1-8.32-15.27,137.94,137.94,0,0,1-6-15.84,99.23,99.23,0,0,1-3.51-16,93.33,93.33,0,0,1-.66-16.9,112.74,112.74,0,0,1,2.55-18.53,4.71,4.71,0,0,0,.09-1.46,4.46,4.46,0,0,0-.36-1.38,4.55,4.55,0,0,0-.79-1.21,5.42,5.42,0,0,0-1.17-1,6.56,6.56,0,0,0-1-.52,7.41,7.41,0,0,0-1.15-.35,8.83,8.83,0,0,0-2.57-.16,7.43,7.43,0,0,0-2.37.58L22.63,154.27Zm81.07-29.11a1.06,1.06,0,0,1,.29-.07h.08a117.11,117.11,0,0,0-2.39,18.63,99.52,99.52,0,0,0,.74,17.44,105.73,105.73,0,0,0,3.7,17,143.39,143.39,0,0,0,6.26,16.62,115.12,115.12,0,0,0,8.76,16.09,132.66,132.66,0,0,0,11.24,14.82,160.49,160.49,0,0,0,13.06,13.28q6.91,6.29,14.69,12.09l-.15.15a1.17,1.17,0,0,1-.27.18L81.17,286.18c-.15.07.08-.12,0-.2l-.76-.59h0c-.39-.29-.79-.59-1.24-.89a126.94,126.94,0,0,1-14.38-10.95,130.09,130.09,0,0,1-12.81-13,127.06,127.06,0,0,1-10.77-14.52,119.06,119.06,0,0,1-8.37-15.58,143.24,143.24,0,0,1-6-15.77,97.91,97.91,0,0,1-3.56-15.9,93.43,93.43,0,0,1-.71-17,119.32,119.32,0,0,1,2.53-19c.08-.37.13-.71.18-1s.07-.59.1-.87l0-.29h0c0-.21,0-.39,0-.53s-.28,0-.14-.07l78.52-34.85Zm206.67.78a8.11,8.11,0,0,1,1.6.59,6.92,6.92,0,0,1,1.5,1l59.29,51.93,0,0a5.38,5.38,0,0,1,1.59,3.65,12.74,12.74,0,0,1-.74,4.05l0,.12c-.73,2.49-1.53,4.95-2.51,7.45a61.24,61.24,0,0,1-3.56,7.56,64.19,64.19,0,0,1-5.22,7.89,88.19,88.19,0,0,1-7.52,8.49c-5.92,5.93-15.25,12.35-24.59,18.78h0c-9.17,6.31-18.34,12.62-23.79,18.11-9,9.07-10.85,14.34-13.22,21.1l0,0c-.46,1.3-.93,2.66-1.56,4.32a5.25,5.25,0,0,1-.4.83l-.13.2,0,0-.45.51a5.19,5.19,0,0,1-1.61,1.24,6,6,0,0,1-2,.58,7,7,0,0,1-1.69,0,7.87,7.87,0,0,1-2.86-1,6.7,6.7,0,0,1-1-.73l-59.3-51.94,0,0a5.62,5.62,0,0,1-1.13-1.79,6.32,6.32,0,0,1-.4-2.54,9.55,9.55,0,0,1,.26-1.86c.13-.58.3-1.13.47-1.68l.57-1.81a61.25,61.25,0,0,1,4.73-12.2c2.21-4,5.46-8.33,11-13.95s13.93-11.27,22.61-17.15l0,0c9.33-6.31,19.09-12.92,25.87-19.85a116.13,116.13,0,0,0,7.81-8.71,50.65,50.65,0,0,0,4.74-6.95,36.1,36.1,0,0,0,2.69-6.13c.63-1.86,1.13-3.78,1.61-5.86h0l.15-.64a5,5,0,0,1,.41-1.13,4.72,4.72,0,0,1,.66-1,4.89,4.89,0,0,1,1.38-1.09,5.73,5.73,0,0,1,1.73-.58,6.82,6.82,0,0,1,1.4-.09,7.7,7.7,0,0,1,1.44.19l.16,0Z"/><path class="cls-2" d="M382.24,211.59a108.21,108.21,0,0,0,5-11.05,3.15,3.15,0,1,0-5.85-2.26,102.1,102.1,0,0,1-4.7,10.4l-.14.23a3.15,3.15,0,1,0,5.69,2.68Z"/><path class="cls-2" d="M157.86,292.93l8.47,22.81a3.79,3.79,0,1,1-7.08,2.74l-8.47-22.81a3.79,3.79,0,0,1,7.08-2.74Z"/><path class="cls-2" d="M236.26,293.51l-10.65,29a3.79,3.79,0,0,1-7.11-2.65l10.65-29a3.79,3.79,0,1,1,7.11,2.65Z"/><path class="cls-2" d="M197.45,269.56v41.72a3.79,3.79,0,1,1-7.59,0V269.56a3.79,3.79,0,0,1,7.59,0Z"/><path class="cls-2" d="M134.62,198.39a98.67,98.67,0,0,0,7.09,10.88,103.14,103.14,0,0,0,8,9.4,3.15,3.15,0,1,0,4.52-4.34,96.12,96.12,0,0,1-7.52-8.82,92.37,92.37,0,0,1-6.63-10.18,3.15,3.15,0,1,0-5.46,3.07Z"/><path class="cls-2" d="M240.51,167.84h0a3.32,3.32,0,1,1,5.26,4.05h0l0,0a3.38,3.38,0,0,1-.46.47c-2.32,2.41-4.74,4.85-7.15,7.3h0c-9.49,9.6-21.44,20-25.84,32.77h0a3.22,3.22,0,0,1-3.43,2.33c-1.7-.13-3.13-2.53-3-3.57s.07-.49.14-.72h0l0-.12a3.23,3.23,0,0,1,.13-.32c4.45-14.16,17.09-24.66,27.31-35l0,0c2.39-2.42,4.78-4.84,7.07-7.21Z"/><path class="cls-2" d="M0,171.71a108.26,108.26,0,0,1,1-12.09,3.15,3.15,0,1,1,6.2.88,102,102,0,0,0-1,11.37q0,.13,0,.27A3.15,3.15,0,1,1,0,171.71Z"/><path class="cls-2" d="M269.52,35.73a98.68,98.68,0,0,1,3.08,12.62A103.17,103.17,0,0,1,274,60.61a3.15,3.15,0,1,1-6.26.32,96.21,96.21,0,0,0-1.29-11.52,92.28,92.28,0,0,0-2.88-11.81,3.15,3.15,0,1,1,6-1.88Z"/><path class="cls-2" d="M145,42.46a103.09,103.09,0,0,0-3.75-11.76A102.63,102.63,0,0,0,128.91,8.06a3.15,3.15,0,1,0-5.09,3.66A93.85,93.85,0,0,1,138.94,44,3.15,3.15,0,1,0,145,42.46Z"/><path class="cls-3" d="M84.83,169.77l-10.56,4.69a3.14,3.14,0,0,1-4.08-1.62l0-.06a3.14,3.14,0,0,1,1.62-4.08L82.29,164a3.14,3.14,0,1,1,2.55,5.74Z"/><path class="cls-3" d="M124.87,237.38c-3.5,1.55-7,3.12-10.5,4.66a3.14,3.14,0,0,1-4.12-1.55l0,0v-.06a3.14,3.14,0,0,1,1.62-4.08l10.5-4.66a3.14,3.14,0,1,1,2.55,5.74Z"/><path class="cls-3" d="M65.88,228.5c-5.63,2.5-11.26,5-16.9,7.5a3.14,3.14,0,0,1-4.13-1.58v0a3.14,3.14,0,0,1,1.59-4.14c5.62-2.5,11.27-5.11,16.92-7.51a3.14,3.14,0,0,1,4.12,1.59h0a3.14,3.14,0,0,1-1.58,4.14Z"/><path class="cls-3" d="M85.86,219.63l-10.45,4.64a3.14,3.14,0,0,1-4.14-1.58l0-.06h0a3.14,3.14,0,0,1,1.62-4.08l10.5-4.66a3.14,3.14,0,0,1,4.14,1.6l0,.06a3.14,3.14,0,0,1-1.62,4.08l-.06,0Z"/><path class="cls-3" d="M47.58,201.52l-10.44,4.64a3.14,3.14,0,1,1-2.55-5.74l10.5-4.66a3.14,3.14,0,0,1,4.14,1.6l0,.06a3.14,3.14,0,0,1-1.62,4.08l-.06,0Z"/><path class="cls-3" d="M85.68,184.61,57.13,197.28a3.14,3.14,0,1,1-2.55-5.74l28.56-12.67a3.14,3.14,0,1,1,2.55,5.74Z"/><path class="cls-3" d="M79.85,156.55,63,164a3.14,3.14,0,0,1-4.14-1.58h0a3.14,3.14,0,0,1,1.6-4.14l16.9-7.5a3.14,3.14,0,0,1,4.12,1.54l0,0v.06a3.14,3.14,0,0,1-1.62,4.08l-.06,0Z"/><path class="cls-3" d="M53.29,168.33l-16.9,7.5a3.14,3.14,0,0,1-4.14-1.59l0-.06h0a3.14,3.14,0,0,1,1.62-4.08c5.22-2.31,12-4.9,16.9-7.5a3.14,3.14,0,0,1,4.14,1.58h0a3.14,3.14,0,0,1-1.58,4.14Z"/><path class="cls-3" d="M99.4,197.19l-16.9,7.5a3.14,3.14,0,0,1-4.08-1.62l0-.06A3.14,3.14,0,0,1,80,198.93l16.9-7.5a3.14,3.14,0,0,1,4.14,1.6l0,.06a3.14,3.14,0,0,1-1.62,4.08l-.06,0Z"/><path class="cls-3" d="M71.14,209.73c-9.52,4.22-19,8.48-28.56,12.67A3.14,3.14,0,0,1,40,216.67L68.6,204a3.14,3.14,0,1,1,2.55,5.74Z"/><path class="cls-3" d="M75,241.49,58.05,249a3.14,3.14,0,0,1-4.14-1.58h0a3.14,3.14,0,0,1,1.6-4.14l16.9-7.5A3.14,3.14,0,1,1,75,241.49Z"/><path class="cls-3" d="M64.78,178.67l-28.5,12.65a3.14,3.14,0,1,1-2.55-5.74l28.56-12.67a3.14,3.14,0,0,1,4.14,1.6l0,.06a3.14,3.14,0,0,1-1.62,4.08l-.06,0Z"/><path class="cls-3" d="M221.69,119.36a3.14,3.14,0,0,0,.52-6.26l-11.45-.95a3.14,3.14,0,0,0-.52,6.26l11.45.95Z"/><path class="cls-3" d="M199.9,117.56a3.14,3.14,0,0,0,.52-6.26l-31.13-2.58a3.14,3.14,0,0,0-.52,6.26l31.14,2.58Z"/><path class="cls-3" d="M209.11,132.3a3.14,3.14,0,0,0,.55-6.26l-18.43-1.62a3.14,3.14,0,0,0-3.39,2.85h0a3.14,3.14,0,0,0,2.85,3.39l18.41,1.62Z"/><path class="cls-3" d="M180.1,129.75a3.14,3.14,0,0,0,.55-6.26l-18.41-1.62a3.14,3.14,0,0,0-.55,6.26l18.41,1.62Z"/><path class="cls-3" d="M240.47,90.37a3.14,3.14,0,0,0,.52-6.26l-11.45-.95a3.14,3.14,0,0,0-.52,6.26l11.45.95Z"/><path class="cls-3" d="M235.39,105.45a3.14,3.14,0,0,0,.52-6.26l-31.14-2.58a3.14,3.14,0,0,0-.52,6.26l31.14,2.58Z"/><path class="cls-3" d="M186.38,39.64a3.14,3.14,0,0,0,.52-6.26l-11.45-.95a3.14,3.14,0,1,0-.52,6.26l11.45.95Z"/><path class="cls-3" d="M217.41,88.33a3.14,3.14,0,0,0,.52-6.26l-18.42-1.53a3.14,3.14,0,0,0-3.39,2.87h0A3.14,3.14,0,0,0,199,86.8l18.42,1.53Z"/><path class="cls-3" d="M188.6,85.94A3.14,3.14,0,0,0,192,83.07h0a3.14,3.14,0,0,0-2.87-3.39l-11.45-.95a3.14,3.14,0,1,0-.52,6.26l11.45.95Z"/><path class="cls-3" d="M229.55,57.17a3.14,3.14,0,0,0,.52-6.26L218.61,50a3.14,3.14,0,1,0-.52,6.26l11.45.95Z"/><path class="cls-3" d="M207.75,55.36a3.14,3.14,0,0,0,.52-6.26l-31.13-2.58a3.14,3.14,0,1,0-.52,6.26l31.14,2.58Z"/><path class="cls-3" d="M188.87,25.68a3.14,3.14,0,1,0,.52-6.26L171,17.89a3.14,3.14,0,0,0-.52,6.26l18.42,1.53Z"/><path class="cls-3" d="M217.89,28.08a3.14,3.14,0,0,0,.52-6.26L200,20.3a3.14,3.14,0,0,0-.52,6.26l18.42,1.53Z"/><path class="cls-3" d="M195.42,71.48a3.14,3.14,0,0,0,3.39-2.87h0a3.14,3.14,0,0,0-2.87-3.39L177.52,63.7A3.14,3.14,0,0,0,177,70l18.42,1.53Z"/><path class="cls-3" d="M239,75.1a3.14,3.14,0,0,0,.52-6.26l-31.14-2.58a3.14,3.14,0,0,0-.52,6.26L239,75.1Z"/><path class="cls-3" d="M191.89,101.77a3.14,3.14,0,0,0,.52-6.26L174,94a3.14,3.14,0,0,0-.52,6.26l18.42,1.53Z"/><path class="cls-3" d="M227.86,43.08a3.14,3.14,0,0,0,.52-6.26l-31.14-2.58a3.14,3.14,0,1,0-.52,6.26l31.13,2.58Z"/><path class="cls-3" d="M323,221.88,315.11,215a3.31,3.31,0,0,1-.4-4.56l0,0,.09-.08a3.31,3.31,0,0,1,4.65-.29l7.86,6.88a3.31,3.31,0,0,1,.4,4.56l-.09.1a3.31,3.31,0,0,1-4.66.31Z"/><path class="cls-3" d="M308.21,209l-12.65-11.08a3.31,3.31,0,0,1,4.35-5L312.56,204a3.31,3.31,0,0,1,.34,4.63l0,0a3.31,3.31,0,0,1-4.66.31Z"/><path class="cls-3" d="M288.43,191.63l-7.86-6.88a3.31,3.31,0,0,1,4.35-5l7.86,6.88a3.31,3.31,0,0,1-4.35,5Z"/><path class="cls-3" d="M328.42,208l-7.86-6.88a3.31,3.31,0,0,1-.4-4.56l0,0,.09-.08a3.31,3.31,0,0,1,4.65-.29l7.86,6.88a3.31,3.31,0,0,1-4.35,5Z"/><path class="cls-3" d="M313.44,194.89l-21.36-18.71a3.31,3.31,0,0,1,4.35-5l21.37,18.72a3.31,3.31,0,0,1,.31,4.66l0,0a3.31,3.31,0,0,1-4.65.29l0,0Z"/><path class="cls-3" d="M334.12,195.9l-12.65-11.08a3.31,3.31,0,0,1-.4-4.56l.09-.1a3.31,3.31,0,0,1,4.56-.4c.35.13,11.43,10,12.75,11.16a3.31,3.31,0,0,1-4.35,5Z"/><path class="cls-3" d="M314.19,178.45l-12.65-11.08a3.31,3.31,0,0,1,4.35-5l12.65,11.08a3.31,3.31,0,0,1-4.35,5Z"/><path class="cls-3" d="M311.7,230.08,299.05,219a3.31,3.31,0,0,1,4.35-5l12.65,11.08a3.31,3.31,0,0,1-4.35,5Z"/><path class="cls-3" d="M290.5,211.51l-21.37-18.72a3.31,3.31,0,0,1,4.35-5l21.37,18.72a3.31,3.31,0,0,1-4.35,5Z"/><path class="cls-3" d="M351.08,194l-12.63-11.06a3.31,3.31,0,0,1-.4-4.56l.09-.1a3.31,3.31,0,0,1,4.56-.4h0L355.46,189a3.31,3.31,0,0,1,.29,4.65l0,0a3.31,3.31,0,0,1-4.65.29l0,0Z"/><path class="cls-3" d="M329.9,175.44l-21.37-18.72a3.31,3.31,0,0,1,4.35-5l21.37,18.72a3.31,3.31,0,0,1-4.35,5Z"/></g></g></svg>