<svg xmlns="http://www.w3.org/2000/svg" viewBox="0 0 304.7 282"><defs><style>.cls-1{fill:#21ce6e;}.cls-1,.cls-2,.cls-3,.cls-4{fill-rule:evenodd;}.cls-2{fill:#ff4b54;}.cls-3{fill:#6aeea5;}.cls-4{fill:#65eda5;}</style></defs><title>Ресурс 4</title><g id="Слой_2" data-name="Слой 2"><g id="_1" data-name="1"><path class="cls-1" d="M97.15,251.33h52.71V214H97.15v37.32Zm87-10.74a3.4,3.4,0,1,1-2.4,1,3.37,3.37,0,0,1,2.4-1Zm-73.86-61a25.14,25.14,0,0,0,12,10.47,24.95,24.95,0,0,0,27.25-5.45,25.2,25.2,0,0,0,4.21-5.6q.6,1,1.3,1.92a25.12,25.12,0,0,0,10.5,8.2,24.94,24.94,0,0,0,27.25-5.45,25.21,25.21,0,0,0,2.35-2.72q.68-.92,1.29-1.9a25,25,0,0,0,35.86,8.6V275a.19.19,0,0,1-.06.13.18.18,0,0,1-.13.05h-17V210.48a4.49,4.49,0,0,0-4.49-4.5h-35.1a4.47,4.47,0,0,0-3.17,1.32,4.5,4.5,0,0,0-1.32,3.18v64.74H75.57a.18.18,0,0,1-.13-.05.19.19,0,0,1-.06-.13V188.42a24.94,24.94,0,0,0,30.87-3.58,25.09,25.09,0,0,0,4-5.23Zm-41.64,2.62a25,25,0,0,1-5-13.9h0V157.81a3.7,3.7,0,0,1-.1-.45,3.84,3.84,0,0,1,0-.58,4,4,0,0,1,.09-.84,3.74,3.74,0,0,1,.28-.8l12.77-26.4v-27.1a4.19,4.19,0,0,1,.32-1.61,4.3,4.3,0,0,1,.92-1.37h0a4.33,4.33,0,0,1,1.37-.92,4.16,4.16,0,0,1,1.61-.32H223.84a4.17,4.17,0,0,1,1.61.32,4.29,4.29,0,0,1,1.37.92h0a4.35,4.35,0,0,1,.92,1.38,4.19,4.19,0,0,1,.32,1.61v26.92c0,.09,0,.19,0,.3v0l14.77,25.85a3.79,3.79,0,0,1,.37.9,3.71,3.71,0,0,1,.13,1v.71h0v9.56a25,25,0,0,1-4.25,14V275a7,7,0,0,1-7,7H75.57a7,7,0,0,1-7-7v-92.8Zm1.72-21.39v6.35a18.24,18.24,0,0,0,36.48-.08v-6.3l-36.48,0Zm129.76-.13V166q0,.33,0,.81c0,.29,0,.55,0,.78a18.24,18.24,0,0,0,36.47-.68v-6.22l-36.42,0Zm-50,5.35v-5.3l-36.48,0V167a18.24,18.24,0,0,0,36.48-.08v-.83Zm6.77,0a18.24,18.24,0,0,0,36.42,1.44v-6.78l-36.42,0v5.31Zm21,109.16h30.53V212.77H177.8v62.44Zm15.6-142.4,5.31,21.14,35.83,0-12.06-21.1ZM191.73,154l-5.31-21.14H156.29V154l35.44,0Zm-42.21,0V132.81H119.28L113.95,154l35.57,0ZM107,154l5.33-21.23H82.1L71.81,154.07,107,154ZM83.32,125.45h138V104.2h-138v21.25ZM152,258.12H95.06a4.62,4.62,0,0,1-1.78-.36,4.71,4.71,0,0,1-1.52-1h0a4.77,4.77,0,0,1-1-1.52,4.65,4.65,0,0,1-.36-1.79V211.92a4.65,4.65,0,0,1,.36-1.79,4.73,4.73,0,0,1,1-1.52h0a4.76,4.76,0,0,1,1.52-1,4.62,4.62,0,0,1,1.78-.36H152a4.62,4.62,0,0,1,1.78.36,4.72,4.72,0,0,1,1.52,1h0a4.73,4.73,0,0,1,1,1.52,4.65,4.65,0,0,1,.36,1.79v41.51a4.65,4.65,0,0,1-.36,1.79,4.73,4.73,0,0,1-1,1.52h0a4.72,4.72,0,0,1-1.52,1A4.62,4.62,0,0,1,152,258.12Z"/><path class="cls-2" d="M282.67,192.83a3.34,3.34,0,0,1,0-6.68h10.15a3.34,3.34,0,0,1,0,6.68Z"/><path class="cls-2" d="M23.39,186.58a3.34,3.34,0,0,1,0,6.68H13.24a3.34,3.34,0,0,1,0-6.68Z"/><path class="cls-2" d="M34.46,137.07a3.34,3.34,0,0,1,1.8,4.36h0a3.33,3.33,0,0,1-4.34,1.8L2.06,130.84a3.34,3.34,0,0,1-1.8-4.36h0a3.32,3.32,0,0,1,4.34-1.8l29.86,12.4Z"/><path class="cls-2" d="M106.3,68.42a3.34,3.34,0,0,1-1.8,4.36h0a3.33,3.33,0,0,1-4.34-1.8L87.79,41a3.34,3.34,0,0,1,1.8-4.36h0a3.33,3.33,0,0,1,4.34,1.81L106.3,68.42Z"/><path class="cls-2" d="M272.79,143.77h0a3.33,3.33,0,0,1-4.34-1.8h0a3.34,3.34,0,0,1,1.8-4.36c9.93-4.12,19.89-8.41,29.86-12.4a3.33,3.33,0,0,1,4.34,1.81h0a3.34,3.34,0,0,1-1.8,4.35l-29.85,12.4Z"/><path class="cls-2" d="M205.52,70.81a3.33,3.33,0,0,1-4.34,1.8h0a3.34,3.34,0,0,1-1.8-4.36l12.37-29.94a3.33,3.33,0,0,1,4.34-1.81h0a3.34,3.34,0,0,1,1.8,4.36L205.52,70.81Z"/><path class="cls-2" d="M31,62.91a3.34,3.34,0,0,1,0,4.72h0a3.32,3.32,0,0,1-4.7,0L19.1,60.43a3.34,3.34,0,0,1,0-4.72h0a3.32,3.32,0,0,1,4.7,0L31,62.91Z"/><path class="cls-2" d="M63.57,95.58a3.34,3.34,0,0,1,0,4.72h0a3.32,3.32,0,0,1-4.7,0L36,77.39a3.34,3.34,0,0,1,0-4.72h0a3.33,3.33,0,0,1,4.7,0L63.57,95.58Z"/><path class="cls-2" d="M279.49,67.33h0a3.32,3.32,0,0,1-4.7,0h0a3.34,3.34,0,0,1,0-4.72L282,55.41a3.32,3.32,0,0,1,4.7,0h0a3.34,3.34,0,0,1,0,4.72l-7.18,7.2Z"/><path class="cls-2" d="M246.91,100h0a3.32,3.32,0,0,1-4.7,0h0a3.34,3.34,0,0,1,0-4.72L265,72.37a3.33,3.33,0,0,1,4.7,0h0a3.34,3.34,0,0,1,0,4.72L246.91,100Z"/><path class="cls-2" d="M156.15,13.52a3.33,3.33,0,1,1-6.66,0V3.34a3.33,3.33,0,1,1,6.66,0V13.52Z"/><path class="cls-2" d="M156.15,59.72a3.33,3.33,0,1,1-6.66,0V27.32a3.33,3.33,0,1,1,6.66,0v32.4Z"/><path class="cls-3" d="M124.85,228l-13.38,13.42a3.14,3.14,0,0,1-4.44,0h0a3.15,3.15,0,0,1,0-4.46l13.38-13.42a3.14,3.14,0,0,1,4.44,0h0a3.15,3.15,0,0,1,0,4.46Z"/><path class="cls-3" d="M140.07,228.49l-13.38,13.42a3.14,3.14,0,0,1-4.44,0h0a3.15,3.15,0,0,1,0-4.46L135.63,224a3.14,3.14,0,0,1,4.44,0h0a3.15,3.15,0,0,1,0,4.46Z"/><path class="cls-4" d="M152.29,117H131.5a3.39,3.39,0,0,1,0-6.79h20.79a3.39,3.39,0,0,1,0,6.79Z"/><path class="cls-4" d="M210.55,117H163.88a3.39,3.39,0,0,1,0-6.79h46.67a3.39,3.39,0,0,1,0,6.79Z"/></g></g></svg>